<svg xmlns="http://www.w3.org/2000/svg" xmlns:xlink="http://www.w3.org/1999/xlink" id="Layer_1" x="0px" y="0px" viewBox="0 0 224.29 31.33" style="enable-background:new 0 0 224.29 31.33;" xml:space="preserve"><style type="text/css">	.st0{fill:#EEF3FF;}	.st1{fill:#00EDDF;}	.st2{fill:none;stroke:#00EDDF;stroke-width:3;stroke-miterlimit:10;}	.st3{fill:#FFFFFF;}	.st4{fill:#4A555E;}	.st5{fill:#5183F2;}	.st6{clip-path:url(#SVGID_00000125578722444357003930000015126295800712926885_);}	.st7{fill:none;stroke:#FFFFFF;stroke-width:3;stroke-linecap:round;stroke-linejoin:round;stroke-miterlimit:10;}	.st8{clip-path:url(#SVGID_00000125578722444357003930000015126295800712926885_);fill:#EEF3FF;}	.st9{fill:#BFD0F2;}	.st10{fill:#2A59DD;stroke:#2A59DB;stroke-miterlimit:10;}	.st11{clip-path:url(#SVGID_00000025425111606367439070000016796835403040439982_);}	.st12{fill:#F75C12;}	.st13{fill:#00DBBB;}	.st14{fill:#706F6F;}	.st15{fill:#00C4F8;}	.st16{fill:#00BDFD;}	.st17{fill:#00D5B3;}	.st18{fill:#31B0DF;}	.st19{fill:#13BCEE;}	.st20{fill:#20B6E7;}	.st21{fill:#37ACDC;}	.st22{fill:#01D5B4;}	.st23{fill:#30AFE0;}	.st24{fill:#37ADDC;}	.st25{fill:#00D5B4;}	.st26{fill:#0BBEF0;}	.st27{fill:#10BCEF;}	.st28{fill:#00D6B4;}	.st29{fill:#1CB8E9;}	.st30{fill:#2AB2E2;}	.st31{fill:#1EB7E8;}	.st32{fill:#2CB1E2;}	.st33{fill:#00935B;}	.st34{fill:#005A7F;}	.st35{fill:#299AB6;}	.st36{fill:#FF2217;}	.st37{fill:#2A59DB;}	.st38{fill:#0B296E;}	.st39{fill:none;stroke:#5183F2;stroke-width:2;stroke-miterlimit:10;}	.st40{fill-rule:evenodd;clip-rule:evenodd;fill:#FFFFFF;}	.st41{fill-rule:evenodd;clip-rule:evenodd;fill:#F38020;}	.st42{clip-path:url(#SVGID_00000110456118000317219170000003165240894805385124_);}	.st43{clip-path:url(#SVGID_00000151542684462257221800000002398036584703187891_);}	.st44{clip-path:url(#SVGID_00000038374670195840819580000007189391383090408889_);}	.st45{clip-path:url(#SVGID_00000011022263361235356680000000742344576588982194_);}	.st46{clip-path:url(#SVGID_00000145739368910453439710000007012360966641215418_);}	.st47{clip-path:url(#SVGID_00000005966188550594368250000008270161382892102290_);}	.st48{clip-path:url(#SVGID_00000021111180314656945190000006297442262119542425_);}	.st49{clip-path:url(#SVGID_00000104697028726057366700000000759681095465868696_);}	.st50{clip-path:url(#SVGID_00000087404017395863483440000011769229926734446270_);}	.st51{clip-path:url(#SVGID_00000085237098068897241240000015222542053551455120_);}	.st52{clip-path:url(#SVGID_00000023977756038596108580000014778482188708329366_);}	.st53{clip-path:url(#SVGID_00000180366501672932721180000017540831413066895279_);}	.st54{clip-path:url(#SVGID_00000092421562826900947810000013895667520037804973_);}	.st55{clip-path:url(#SVGID_00000119802713740511081020000012586838974099209102_);}	.st56{fill:#FEFEFE;}	.st57{fill:#201E1F;}	.st58{fill:#211E1F;}	.st59{fill:#FEFBF3;}	.st60{fill:#221F20;}	.st61{fill:#FEFCF6;}	.st62{fill:#1E1E1E;}	.st63{fill:#212020;}	.st64{fill:#232122;}	.st65{fill:#2F2F2F;}	.st66{fill:#FAFDFB;}	.st67{fill:#2B2B2B;}	.st68{fill:#FDFCFC;}	.st69{fill:#262626;}	.st70{fill:#2A2A2A;}	.st71{fill:#292929;}	.st72{fill:#2D2D2D;}	.st73{fill:#272727;}	.st74{fill:#FAFEFE;}	.st75{fill:#212121;}	.st76{fill:#211F20;}	.st77{fill:#FEFEFA;}	.st78{fill:#222222;}	.st79{fill:#252525;}	.st80{fill:#F1F0F1;}	.st81{fill:#F8F8F8;}	.st82{fill:#F9FDFC;}	.st83{fill:#27221F;}	.st84{fill:#2E2E2E;}	.st85{fill:#1A1A1A;}	.st86{fill:#FEFDFA;}	.st87{fill:#242424;}	.st88{fill:#F7F8F0;}	.st89{fill:#F4F4F4;}	.st90{fill:#FBFBFB;}	.st91{fill:#FEF7EC;}	.st92{fill:#1C1C1C;}	.st93{fill:#181818;}	.st94{fill:#FAFAFA;}	.st95{fill:#FEFBF5;}	.st96{fill:#1B1B1B;}	.st97{fill:#FBEFE1;}	.st98{fill:#191919;}	.st99{fill:#F6FCFC;}	.st100{fill:#C5C5C5;}	.st101{fill:#F2FCFE;}	.st102{fill:#202020;}	.st103{fill:#303030;}	.st104{fill:#1D1D1D;}	.st105{fill:#E8853B;}	.st106{fill:#FEFDF9;}	.st107{fill:#FDFBF7;}	.st108{fill:#141414;}	.st109{fill:#FEFCF8;}	.st110{fill:#FEFDF7;}	.st111{fill:#1A1D20;}	.st112{fill:#393939;}	.st113{fill:#171717;}	.st114{fill:#383838;}	.st115{fill:#361F12;}	.st116{fill:#323232;}	.st117{fill:#282828;}	.st118{fill:#FEFCF4;}	.st119{fill:#222121;}	.st120{fill:#F7FEFE;}	.st121{fill:#8B8B8B;}	.st122{fill:#E3E3E3;}	.st123{fill:#313131;}	.st124{fill:#222021;}	.st125{fill:#111111;}	.st126{fill:#454545;}	.st127{fill:#F6F6F6;}	.st128{fill:#2C2C2C;}	.st129{fill:#DBDBDB;}	.st130{fill:#474747;}	.st131{fill:#F7F7F7;}	.st132{fill:#DDDDDD;}	.st133{fill:#F1FEFE;}	.st134{fill:#343434;}	.st135{fill:#FEFCF7;}	.st136{fill:#EAEAEA;}	.st137{fill:#555555;}	.st138{fill:#FDFBF1;}	.st139{fill:#4D4D4D;}	.st140{fill:#5F5F5F;}	.st141{fill:#EDEDED;}	.st142{fill:#444444;}	.st143{fill:#121212;}	.st144{fill:#131313;}	.st145{fill:#F9F9F9;}	.st146{fill:#363636;}	.st147{fill:#FEF9F2;}	.st148{fill:#373737;}	.st149{fill:#1E1B19;}	.st150{fill:#3D3D3D;}	.st151{fill:#F5FEFD;}	.st152{fill:#1F1F1F;}	.st153{fill:#CECECE;}	.st154{fill:#434343;}	.st155{fill:#292728;}	.st156{fill:#3B3B3B;}	.st157{fill:#3F3F3F;}	.st158{fill:#1A1819;}	.st159{fill:#1B1A1B;}	.st160{fill:#252324;}	.st161{fill:#262223;}	.st162{fill:#F08A3F;}	.st163{fill:#241710;}	.st164{fill:#E59248;}	.st165{fill:#FEF0DE;}	.st166{fill:#2C2521;}	.st167{fill:#29221D;}	.st168{fill:#F4F1EA;}	.st169{fill:#262425;}	.st170{fill:#F5FEFE;}	.st171{fill:#E8E8E8;}	.st172{fill:#ECECEC;}	.st173{fill:#E4E4E4;}	.st174{fill:#EEEEEE;}	.st175{fill:#A6A6A6;}	.st176{fill:#FDFDFD;}	.st177{fill:#EFEFEF;}	.st178{fill:#F1F1F1;}	.st179{fill:#FDF6E9;}	.st180{fill:#111C28;}	.st181{fill:#BDBDBD;}	.st182{fill:#EE8A3F;}	.st183{fill:#F48739;}	.st184{fill:#E8914F;}	.st185{fill:#E98C44;}	.st186{fill:#EC8C47;}	.st187{fill:#F69A53;}	.st188{fill:#F58737;}	.st189{fill:#F18D41;}	.st190{fill:#D5834C;}	.st191{fill:#E7E7E7;}	.st192{fill:#A8A8A8;}	.st193{fill:#F58633;}	.st194{fill:#E48E4B;}	.st195{fill:#161616;}	.st196{fill:#FEFCFC;}	.st197{fill:#F7FDFD;}	.st198{fill:#FDFDF8;}	.st199{fill:#F9FEFE;}	.st200{fill:#FBFBF6;}	.st201{fill:#F2FDFD;}	.st202{fill:#FBF9FA;}	.st203{fill:#FEFEF6;}	.st204{fill:#FBF7F6;}	.st205{fill:#F58634;}	.st206{fill:#F18735;}	.st207{fill:#F8862F;}	.st208{fill:#FE8226;}	.st209{fill:#F9852C;}	.st210{fill:#F68E36;}	.st211{fill:#FB832D;}	.st212{fill:#F0893D;}	.st213{fill:#F08A43;}	.st214{fill:#DF9059;}	.st215{fill:#D38244;}	.st216{fill:#ED8B43;}	.st217{fill:#F78530;}	.st218{fill:#F08839;}	.st219{fill:#F38737;}	.st220{fill:#F3872D;}	.st221{fill:#F88631;}	.st222{fill:#ED893D;}	.st223{fill:#332520;}	.st224{fill:#E88944;}	.st225{fill:#FB8528;}	.st226{fill:#31231A;}	.st227{fill:#FB8438;}	.st228{fill:#FC8230;}	.st229{fill:#E69151;}	.st230{fill:#FD8325;}	.st231{fill:#E19962;}	.st232{fill:#F38434;}	.st233{fill:#FA8327;}	.st234{fill:#FC8631;}	.st235{fill:#F48737;}	.st236{fill:#FA842B;}	.st237{fill:#F68F46;}	.st238{fill:#EE8A34;}	.st239{fill:#EA8941;}	.st240{fill:#EF893F;}	.st241{fill:#FB8526;}	.st242{fill:#FA8431;}	.st243{fill:#EE8843;}	.st244{fill:#F1802C;}	.st245{fill:#F9E2C8;}	.st246{fill:#F08A42;}	.st247{fill:#ED8744;}	.st248{fill:#E98B41;}	.st249{fill:#FD801F;}	.st250{fill:#F0852D;}	.st251{fill:#ED883E;}	.st252{fill:#EA8C48;}	.st253{fill:#F9842B;}	.st254{fill:#FA842D;}	.st255{fill:#F8852E;}	.st256{fill:#F7842F;}	.st257{fill:#F18636;}	.st258{fill:#FBF4F0;}	.st259{fill:#FEF7EE;}	.st260{fill:#FAEADC;}	.st261{fill:#1B2026;}	.st262{fill:#FDFBFB;}	.st263{fill:#DC8247;}	.st264{fill:#EE893A;}	.st265{fill:#E29153;}	.st266{fill:#FC7F1E;}	.st267{fill:#F08A3D;}	.st268{fill:#FAF5EA;}	.st269{fill:#FDF7EA;}	.st270{fill:#FCF9F5;}	.st271{fill:#FCFDFB;}	.st272{fill:#F8FDFE;}	.st273{fill:#20252B;}	.st274{fill:#21140A;}	.st275{fill:#F2FDFE;}	.st276{fill:#F7FDFE;}	.st277{fill:#FEFBEF;}	.st278{fill:#F9FDFA;}	.st279{fill:#F2FEFE;}	.st280{fill:#FCFEF9;}	.st281{fill:#EEFEFE;}	.st282{fill:#EFFEFE;}	.st283{fill:#FEFDF4;}	.st284{fill:#FEFBF7;}	.st285{fill:#FEFEF0;}	.st286{fill:#0A814F;}	.st287{fill:#726D68;}	.st288{fill:#50BFAD;}	.st289{fill:#707070;}	.st290{fill:#1EC1F2;}	.st291{fill:#3EB7E9;}	.st292{fill:#4ABEA7;}	.st293{fill:#34ADDB;}	.st294{fill:#17BAED;}	.st295{fill:#25B4E3;}	.st296{fill:#3AA9D9;}	.st297{fill:#4ABEA8;}	.st298{fill:#2FACDC;}	.st299{fill:#36AAD9;}	.st300{fill:#10BCEE;}	.st301{fill:#1EBAED;}	.st302{fill:#21B7E7;}	.st303{fill:#2EAFDE;}	.st304{fill:#26B5E5;}	.st305{fill:#2EAEDE;}	.st306{fill:#F05A22;}	.st307{fill:#58595B;}	.st308{fill:#595A5C;}	.st309{fill:#005A80;}	.st310{fill:#3DA3BE;}	.st311{fill:#00B3AB;}	.st312{fill:#A7A8AB;}	.st313{fill:#10817C;}	.st314{fill:#08B6AD;}	.st315{fill:#007548;}	.st316{fill:#919387;}	.st317{fill:#909286;}	.st318{fill:#960A2C;}	.st319{fill:#007087;}	.st320{fill:#A70F27;}	.st321{fill:#C4122E;}	.st322{fill:#0D0103;}	.st323{fill:#5A0818;}	.st324{fill:#280309;}	.st325{fill:#790B1C;}	.st326{fill:#003C48;}	.st327{fill:#2F040B;}	.st328{fill:#37050D;}	.st329{fill:#31040C;}	.st330{fill:#420711;}	.st331{fill:#BE2033;}	.st332{fill:#9B0D22;}	.st333{fill:#000211;}	.st334{fill-rule:evenodd;clip-rule:evenodd;}	.st335{fill:#0F3996;}	.st336{fill:url(#SVGID_00000138534031480198642770000009983591819736911295_);}	.st337{fill:url(#SVGID_00000111179015967388835650000000429482652278431378_);}	.st338{fill:url(#SVGID_00000168819846522419871070000018263310579481261970_);}	.st339{fill:url(#SVGID_00000152230300194878415120000005127880725721150645_);}	.st340{fill:url(#SVGID_00000119081462586115981980000016414445429133610931_);}	.st341{fill:url(#SVGID_00000049207203106689315870000010002565828591643025_);}	.st342{fill:url(#SVGID_00000073705179584980239320000016189429211771623311_);}	.st343{fill:url(#SVGID_00000096765628988801764710000009610409987435794327_);}	.st344{fill:url(#SVGID_00000099655444999278547910000010230000879994451867_);}	.st345{fill:url(#SVGID_00000008832242386958205570000002672252837390078357_);}	.st346{fill:#1B3EB5;}	.st347{clip-path:url(#SVGID_00000090268597473391768680000004628203477062060702_);fill:#00EDDF;}	.st348{clip-path:url(#SVGID_00000090268597473391768680000004628203477062060702_);fill:#0B296E;}	.st349{fill:#1C2122;}	.st350{fill:#E31B23;}</style><g></g><g>	<path class="st350" d="M74.82,5.91c1.28,0,2.32-1.02,2.32-2.28c0-1.26-1.04-2.28-2.32-2.28c-1.28,0-2.32,1.02-2.32,2.28  C72.5,4.89,73.54,5.91,74.82,5.91"></path>	<path class="st350" d="M223.69,24.33c-27.26,4.08-32.36,3.94-34.25,2.77c-0.36-0.27-0.8-0.83-1-2.03c2.56-1.97,6.75-5.64,8.95-7.6  c1.15-1.03,2.35-2.11,2.88-3.6c0.81-2.33-0.82-4.73-2.95-5.46c-2.02-0.7-4.05-0.31-5.91,0.68c-0.46,0.24-0.99,0.63-1.38,0.96  c-2.75,2.37-5.35,7.03-5.35,12.94l-0.35,0.24c-0.3,0.2-0.61,0.42-0.92,0.67c-2.71,1.85-5.06,3.37-5.96,3.42  c-0.05-0.07-0.08-0.21-0.09-0.45c-0.03-1.06,0.34-3.96,2.3-11.08c0.06-0.22,0.17-0.6,0.26-0.88c0.38-1.23,0.82-2.64,0.76-3.93  c-0.03-0.76-0.24-1.5-0.75-2.1c-0.5-0.59-1.43-1.23-3.08-0.98l-0.2,0.05c-3.29,0.9-8.61,1.98-9.04,2.06  c-0.21-0.2-0.42-0.38-0.59-0.53c-1.23-1.09-3.11-1.82-4.76-1.56c-1.48,0.24-3.01,1.49-3.13,3.01c-0.19,2.36,2.96,2.88,4.76,3.02  c0.02,0,0.03,0,0.05,0h0.11c-0.74,12-5.93,13.84-8.47,13c-0.21-0.12-0.28-2.68-0.08-4.92c0.51-5.99,2.41-14.01,2.44-14.23  l-3.6,0.39c-0.09,0.34-0.15,0.66-0.21,0.99c-1.56-0.55-3.15-1-4.81-1.02c-3.15-0.04-5.88,1.92-7.72,4.35  c-1.16,1.54-2.13,3.22-2.8,5.03c-0.24,0.67-0.44,1.35-0.58,2.05c-0.42,2.08-0.36,4.3,0.27,6.34c-1.98,0.91-3.63,1.53-4.3,1.57  c-0.09-0.16-0.53-2.34-0.65-4.24c0.23-0.6,0.45-1.19,0.65-1.78c1.27-3.69,2.14-12.91,2.14-12.91l-4.27,0.91  c0,0-1.1,10.56-4.23,15.26c-1.15,1.73-2.67,2.57-3.59,1.75c-1.67-1.47-0.61-8.24-0.61-8.24l-3.82,0.97  c-0.24,2.2-0.52,3.23-1.01,4.71c-0.46,1.36-1.16,2.75-2.57,3.31c-4.67,1.89-3.18-4.9-2.7-7.13c0.39-1.84,0.86-3.65,1.37-5.45  c0.29-1.02,1.58-5.49,1.75-6.09l-4.5,0.9c-0.15,0.55-2.28,7.76-3.41,11.46c-6.8,5.95-9.96,7.25-12.07,6.38  c-0.31-0.12-1.15-0.46-1.46-2.28c2.56-1.96,6.76-5.64,8.96-7.6c1.15-1.03,2.35-2.11,2.88-3.6c0.82-2.33-0.82-4.72-2.94-5.46  c-2.03-0.7-4.06-0.32-5.92,0.68c-0.45,0.25-1,0.63-1.39,0.96c-2.75,2.37-5.34,7.03-5.35,12.93l-0.35,0.25  c-3.08,2.06-7.01,4.25-8.02,4.32c-0.15-0.27-0.67-1.44,0.44-6.53c0.3-1.37,1.5-5.78,2.34-8.81l1.12,0.04c0,0,3.55-0.05,5.53-0.3  l-0.53-3.68c-1.41,0.18-3.86,0.22-5.11,0.24l0.8-3.07c0,0,1.06-4.15,1.12-4.36L85.1,0c-0.17,0.64-1.37,5.33-1.37,5.33l-0.77,2.96  l-0.55-0.03c0,0-1.95-0.21-3-0.35l-0.44,3.69c0.77,0.1,2.02,0.23,2.99,0.33c-0.76,2.75-1.85,6.72-2.13,8.03  c-0.31,1.4-0.52,2.63-0.64,3.72c-3.22,2.02-6.71,3.75-7.72,3.81c-0.13-0.24-0.61-1.43,0.18-5.56c0.59-3.09,1.98-7.63,2.75-10.18  c0.28-0.93,0.53-1.74,0.7-2.38l-3.63-0.81l-0.01-0.01c-1.77,2.01-5.94,4.59-10.04,7.01C61.39,12.5,60.85,9.46,59.63,8  c-0.76-0.91-1.63-1.13-2.22-1.15c-1.33-0.05-2.4,0.72-4.71,2.4c-2.89,2.1-8.26,6-18.49,11.45C14.66,31.12,1.77,25.84,1.64,25.79  L0,29.57c0.3,0.13,4.19,1.77,10.81,1.77c6.25,0,14.93-1.46,25.34-7c10.48-5.58,16-9.6,18.97-11.76c0.59-0.43,1.2-0.87,1.67-1.19  c0.38,1.27,0.68,3.8,0.41,6.58c-0.51,0.29-1.01,0.57-1.48,0.84c-1.87,1.05-3.48,1.96-4.63,2.66c-1.58,0.97-5.1,3.16-3.64,6.76  c0.98,2.42,3.82,3.57,6.79,2.59c2.43-0.8,5.51-3.24,6.76-10.27c2.84-1.63,5.86-3.41,8.43-5.18c-0.04,0.12-0.07,0.24-0.1,0.35  l-1.12,4.48c-0.88,4.07-1.09,7.44,0.17,9.35c0.62,0.94,1.52,1.56,2.63,1.68c0.1,0.01,0.22,0.02,0.33,0.02  c1.95,0,5.27-1.72,7.94-3.28c0.16,0.67,0.41,1.24,0.75,1.72c0.61,0.86,1.5,1.34,2.56,1.5c2.23,0.35,6.41-2.41,9.22-4.21  c0.77,1.99,2.26,3.29,3.41,3.76c0.77,0.31,1.63,0.46,2.57,0.46c5,0,8.07-2.98,11.07-6.08c0.09,2.92,1.4,4.26,2.52,5.05  c1.06,0.74,2.33,1.08,3.5,1.08c1.68,0,3.73-0.43,4.85-1.8c0.24-0.29,0.48-0.62,0.65-0.95c-0.07,0.15,0.69,1.09,0.8,1.21  c1.17,1.4,2.94,1.71,4.76,1.37c1.8-0.33,3.21-1.19,4.35-2.36c0.1,0.34,0.22,0.63,0.39,0.84c0.7,0.94,1.73,1.5,2.99,1.63  c0.12,0.01,0.24,0.01,0.38,0.01c0.64,0,1.61-0.23,2.7-0.58c1.15-0.37,2.44-0.86,3.58-1.35c0.69,0.68,1.63,1.31,2.53,1.6  c0.11,0.04,0.35,0.1,0.35,0.1c0.19,0.06,0.4,0.1,0.61,0.13c0.06,0.01,0.13,0.01,0.2,0.02c0.22,0.04,0.79,0.06,0.97,0.08  c2.14,0,4.99-0.94,6.99-2.04c0.45,0.88,1.42,1.7,2.91,1.93c5.17,0.79,10.11-2.79,11.67-9.4c0.84-3.55,1.43-7.45,1.55-7.9  c1.48-0.15,4.87-1.01,8.87-2.07c-0.12,0.66-0.4,1.57-0.55,2.05c-0.1,0.32-0.19,0.61-0.26,0.87c-1.63,5.92-2.66,10.06-2.46,12.68  c0.06,0.88,0.26,1.6,0.63,2.15c0.61,0.92,1.52,1.61,2.6,1.74c1.99,0.23,8.22-4,8.22-4s0.03,0.09,0.11,0.21  c0.16,0.35,0.35,0.67,0.57,0.94c0.04,0.06,0.07,0.11,0.08,0.13c0.26,0.4,0.57,0.76,0.91,1.08c1.11,1.08,2.72,1.64,4.24,1.7  c0.86,0.04,1.72,0,2.56-0.02c1.81-0.02,3.61-0.12,5.42-0.27c2.53-0.21,5.06-0.39,7.58-0.68c2.52-0.3,5.03-0.55,7.54-0.87  c2.09-0.27,4.19-0.55,6.28-0.83c1.29-0.18,2.58-0.38,3.87-0.58L223.69,24.33z M191.99,12.84c3.15-2.96,4.82,0.34,4.82,0.34  s-0.4,0.42-1.63,1.55c-1.33,1.22-4.22,4.11-6.74,6.32C188.75,17.55,190.36,14.36,191.99,12.84 M98.73,12.79  c3.15-2.97,4.83,0.34,4.83,0.34s-0.4,0.42-1.63,1.56c-1.32,1.21-4.21,4.12-6.74,6.31C95.51,17.49,97.12,14.31,98.73,12.79   M53.18,27.4c-1.58,0.52-2.39-0.09-2.66-0.65c0.3-0.28,1-0.85,2.71-1.91c0.79-0.49,1.97-1.18,3.5-2.04  C55.74,25.24,54.75,26.88,53.18,27.4 M151.39,25.06c-0.21,0.15-0.62,0.37-1.14,0.64c-1.6,0.83-4.79,1.94-6.61,0.77  c-0.26-0.16-0.48-0.38-0.68-0.65c-1.61-2.33-0.66-5.67,0.17-8.07c0.91-2.65,2.56-5.29,5.46-6.01c1.67-0.41,3.27-0.14,4.83,0.25  C152.69,14.82,151.54,19.84,151.39,25.06 M161.68,10.96c-0.1-0.14,0.24-0.44,0.32-0.52c0.58-0.56,1.56-0.68,2.23-0.16  c0.46,0.36,0.75,0.88,0.75,0.88C164,11.38,161.77,11.09,161.68,10.96"></path></g></svg>