<svg fill="none" height="54" viewBox="0 0 277 54" width="277" xmlns="http://www.w3.org/2000/svg"><path d="m224.907 0h-10.071v52.0307h10.071z" fill="#211f20"/><path d="m276.937 0h-52.03v52.0307h52.03z" fill="#fdba14"/><g fill="#211f20"><path d="m125.041 31.0506 6.714-5.8745c-4.028-7.385-12.868-9.2312-16.784-9.2312-14.099 0-17.6233 12.8678-17.6233 19.3017.6714 14.77 12.5883 18.4625 18.4623 18.4625 8.728 0 13.707-5.0352 15.106-7.5528l-6.714-6.7137c-2.685 4.0282-6.713 4.4758-8.392 4.196-7.385 0-9.231-6.1541-9.231-9.2312 0-7.385 6.154-9.2313 9.231-9.2313 5.371 0 8.392 3.9163 9.231 5.8745z"/><path clip-rule="evenodd" d="m211.48 37.7624h-26.855c.559 2.2379 3.189 6.7137 9.231 6.7137 1.958.2797 6.378 0 8.392-3.3568l5.036 6.7136c-1.119 1.9581-5.371 5.8744-13.428 5.8744-6.154 0-18.63-3.6925-19.301-18.4625 0-6.7136 3.86-19.973 19.301-19.3017 6.154 0 18.295 4.3639 17.624 21.8193zm-10.071-5.8727h-16.784c.28-2.2379 2.35-6.7137 8.392-6.7137 2.518 0 7.721 1.3428 8.392 6.7137z" fill-rule="evenodd"/><path d="m36.925.839205h-36.925v10.070495h13.4273v41.9602h10.0704v-41.9602h13.4273z"/><path d="m53.7091 26.8545 2.5176-9.2312-5.8744-.8392c-4.6996 0-7.5529 1.6784-8.3921 2.5176l-2.5176-2.5176h-5.8744v35.2466h9.2312v-22.6585c2.6855-4.6996 8.3921-3.6366 10.9097-2.5177z"/><path clip-rule="evenodd" d="m86.4383 16.7844-1.6784 4.196c-1.1189-1.3987-4.6995-4.196-10.0704-4.196-5.8744-.2798-17.7912 2.8533-18.4625 17.6233-.2798 6.154 2.8533 18.63 17.6233 19.3014 2.5177 0 8.0566-1.0071 10.0706-5.0352l2.5174 3.3568h6.7138v-35.2463zm-11.7491 26.8542c5.0983 0 9.2312-4.1329 9.2312-9.2312s-4.1329-9.2313-9.2312-9.2313-9.2313 4.133-9.2313 9.2313 4.133 9.2312 9.2313 9.2312z" fill-rule="evenodd"/><path clip-rule="evenodd" d="m135.112.839205h9.231v20.140895c1.119-1.3987 4.868-4.196 10.91-4.196 5.315 0 15.945 3.5247 15.945 17.6233.279 6.1542-2.686 18.4625-16.784 18.4625-2.238.2797-7.553-.1679-10.91-4.196l-1.678 3.3568h-6.714zm18.462 42.799395c5.099 0 9.232-4.1329 9.232-9.2312s-4.133-9.2313-9.232-9.2313c-5.098 0-9.231 4.133-9.231 9.2313s4.133 9.2312 9.231 9.2312z" fill-rule="evenodd"/><path d="m204.752 10.0705c-.714 0-1.374-.12842-1.983-.38518-.609-.25675-1.141-.61335-1.598-1.0698-.456-.46596-.813-1.00324-1.069-1.61185-.248-.6086-.371-1.26475-.371-1.96844 0-.7037.128-1.35985.385-1.96845s.613-1.14113 1.07-1.59758c.456-.46596.989-.827316 1.597-1.08407.618-.256753 1.284-.38513 1.997-.38513s1.374.128377 1.983.38513c.618.247245 1.151.599093 1.597 1.05554.457.45646.809.98898 1.056 1.59758.257.5991.385 1.25524.385 1.96845 0 .7132-.128 1.37886-.385 1.99697-.257.60861-.618 1.14589-1.084 1.61185-.457.45645-.989.81305-1.598 1.0698-.608.25676-1.269.38518-1.982.38518zm1.512-2.22524-1.398-2.15388h1.226l1.398 2.15388zm-1.527 1.44067c.609 0 1.17-.10936 1.684-.32808.513-.21871.96-.51826 1.34-.89863.39-.38989.69-.84634.899-1.36936.209-.52301.314-1.08407.314-1.68316s-.105-1.15539-.314-1.6689-.504-.96045-.884-1.34083c-.371-.38037-.813-.67516-1.327-.88437-.504-.218716-1.06-.328074-1.669-.328074-.608 0-1.174.109358-1.697.328074-.514.20921-.961.50875-1.341.89864-.371.38988-.666.84158-.884 1.35509-.21.51351-.314 1.06981-.314 1.6689s.104 1.15539.314 1.6689c.209.5135.504.9652.884 1.35509.38.38988.827.69418 1.341.9129.513.20921 1.065.31381 1.654.31381zm-2.082-1.44067v-5.62006h2.339c.742 0 1.322.17592 1.74.52777.419.35185.628.82732.628 1.42641 0 .61811-.209 1.09834-.628 1.44068-.418.34233-.998.5135-1.74.5135h-1.112v1.7117zm1.212-2.66739h1.056c.399 0 .708-.08559.927-.25676.219-.18067.328-.42792.328-.74173s-.109-.5563-.328-.72747-.528-.25675-.927-.25675h-1.056z"/></g></svg>