<svg xmlns="http://www.w3.org/2000/svg" id="Layer_1" data-name="Layer 1" viewBox="0 0 862.71 213.73"><defs><style>.cls-1{fill:#022e80;}</style></defs><path class="cls-1" d="M221.83,213.71H13.35C3,213.71,0,210.71,0,200.3V109.8c0-9.49,4.11-13.19,13.58-13.94C52.75,92.78,92,90.13,131,86a1094.36,1094.36,0,0,0,167.2-31C341.74,43.32,384.13,28.69,423.83,7c4.22-2.3,8.56-4.41,13-6.34,4.16-1.82,6.8.1,7.9,4.16a26.54,26.54,0,0,1,.95,6.87q.08,94.74,0,189.49c0,7.57-4.3,12.08-11.86,12.48-1.49.08-3,0-4.5,0Zm96-57.43c.76-11.21-4.72-18.85-14.44-21A18.68,18.68,0,0,0,282,146.82c-3.51,9.07-.26,19.52,7.51,24.2,8.65,5.22,19.89,3.75,25.92-3.5-1.15-2.46-2.18-3-5.2-1.6A27.75,27.75,0,0,1,298,168.51c-6.61-.29-11.06-5.8-10.69-12.23Zm89.46,18.19,1.14-1.46c0-8.3.45-16.63-.12-24.89-.58-8.42-5.11-12.87-13.53-13-4.81-.08-9.79,1.42-14.42,3-3.51,1.2-3.36,2.23-.39,5.65,6.1-3.46,12.49-6,19.23-2,3.52,2.07,4.1,5.73,3.26,9.64-6,.42-11.81.44-17.51,1.35s-8.78,4.75-8.88,9.83,3,8.92,8.26,10.57a18.7,18.7,0,0,0,16.86-2.42ZM165,156.13c1.22-10.24-4.2-18.18-13.65-20.66a18.37,18.37,0,0,0-21.73,10.66c-4,9.34-.9,20.13,7.29,25,8.73,5.17,19.9,3.62,25.76-3.6-1.18-2.61-2.35-2.84-5.28-1.5a27.4,27.4,0,0,1-12.3,2.49c-6.59-.34-11-5.85-10.67-12.36Zm17.53,10.42c-1.72,1.68-1.27,3.48,1.86,4.84,7,3,14.14,3.78,21.37,1.1,4.46-1.65,7.18-5,7-9.87s-3.25-7.53-7.64-8.71c-3.69-1-7.51-1.49-11.19-2.5-3.11-.85-6.38-2.12-5.83-6.24.52-3.82,3.75-5.24,7-5.06,4.22.22,8.4,1.38,12.59,2.13.47.08.94.12,1.73.21l1.8-4.1c-6.73-3.36-13.27-4.51-20.18-2.54-5.41,1.55-8.58,5.41-8.56,10.31s2.67,8.15,8.38,9.72c3.36.92,6.85,1.37,10.24,2.2,2.95.74,6.08,1.59,5.78,5.62s-3.48,5.31-6.75,5.11C194.63,168.43,189.15,167.42,182.54,166.55Zm81.09-24c-5.11-7.14-13.3-9.46-22.17-6.36a19.1,19.1,0,0,0-12.65,19,19.31,19.31,0,0,0,15.33,18.51c8,1.85,15.81-1.14,19.3-7.43-3.12-2.48-3.12-2.48-5.94-.3a14.44,14.44,0,0,1-19.42-1.52c-4.68-5.24-4.59-15,.18-20.21a14.11,14.11,0,0,1,19.35-.92C260.06,145.38,261.55,145,263.63,142.52ZM67.42,163.68c-7.6,6.43-15.89,6.82-21.47,1.38-5.19-5.07-5.55-14.91-.74-20.55,5.28-6.19,13.42-6,22.4.63l3.35-2.5c-5.86-8.12-16.58-10.11-25.51-5C37,142.49,33.7,153.57,37.9,163c4,8.85,14.74,13.52,24.36,10,3.3-1.2,6.11-3.75,9.77-6.09Zm277.47,9.51V158.06c0-13.13,1.35-15,13.91-18.63-.07-1.33-.15-2.74-.29-5.54l-12.71,5.19-4.54-4c-.75,1.91-2.1,3.8-2.14,5.73-.23,9.47,0,19-.16,28.43C338.89,173.36,340.25,174.86,344.89,173.19Zm-253.06,0c5.6,1.09,5.76,1,5.82-3.71.08-5.64-.11-11.29.11-16.93.27-6.95,3.42-10.82,10.27-12,3.9-.66,4.24-2.27,2.47-6.51l-13.11,5.73c-.12-1-.33-2.59-.72-5.69-2.08,1.49-4.64,2.44-4.66,3.46C91.73,149.44,91.83,161.35,91.83,173.15Z"></path><path class="cls-1" d="M573,174.69c-3.62,1.79-5,.39-5.86-2.54-.68-2.24-1.49-5.72-3-6.18a19.8,19.8,0,0,0-10.28-.05c-1.4.37-2.4,3.65-2.89,5.77-.75,3.29-2.19,4.66-6,3.22,3.68-12,7.32-24,11.14-35.93a3.68,3.68,0,0,1,2.86-1.82c1,0,2.66.83,2.92,1.65C565.74,150.75,569.36,162.76,573,174.69Zm-8.86-13c-1.65-5.76-3.11-10.88-4.57-16l-1.08-.06c-1.45,5.23-2.89,10.45-4.44,16.06Z"></path><path class="cls-1" d="M805,174.74c-4.37,1.94-5.18-.5-6-3.27-.61-2-1.35-5.21-2.54-5.46a24.84,24.84,0,0,0-10.82,0c-1.34.33-2.23,3.77-2.72,5.94-.71,3.19-2.28,4.19-5.88,3,1.66-5.51,3.3-11,5-16.48,2-6.36,3.84-12.74,6-19a4.08,4.08,0,0,1,3-2.28,4,4,0,0,1,3.1,2.09C797.85,151,801.37,162.75,805,174.74Zm-13.38-29-1.13,0-4.46,15.72h10C794.51,155.89,793.08,150.84,791.64,145.78Z"></path><path class="cls-1" d="M611.35,137c4.58,0,8.74-.16,12.89,0,6.87.33,10.7,4.75,10.57,11.85-.12,6.79-4,10.7-10.91,10.91-2.31.07-4.62,0-7.85,0,0,4.13-.11,7.89,0,11.64.13,3.26-.92,4.8-4.73,3.59Zm4.75,4.38c0,4,0,8.1,0,12.2a3.16,3.16,0,0,0,.87,2.16c3.48,2.75,11.58-.34,12.69-4.77C631.7,143.07,626.78,139.41,616.1,141.41Z"></path><path class="cls-1" d="M504.08,164l4.36.29c-.44,7-3.41,10.73-9,11.46-7,.91-12.73-2-13.66-8.52a80.89,80.89,0,0,1-.07-21.76c.85-6.53,6.06-9.3,13-8.69,6.17.54,9.08,3.84,9.72,11.19-2.86,1.26-4.52.6-5.11-2.73-.61-3.49-3.25-5.65-6.38-4.84-2.43.64-5.78,3.06-6.18,5.18-1.08,5.63-1,11.54-1,17.33.06,4.31,1.21,8.53,6.5,9.21C501.88,172.83,503.45,169,504.08,164Z"></path><path class="cls-1" d="M727,174.92V140.73a45.26,45.26,0,0,1-6.54-.09c-1.12-.18-2.11-1.26-3.16-1.94,1-.56,2-1.59,3-1.61,7-.14,13.93-.07,20.85-.07.38,2.6.38,2.6-9.08,4.41,0,10-.07,20.07,0,30.17C732.12,175,731,176.25,727,174.92Z"></path><path class="cls-1" d="M843.24,137.3h4.56v34.61c4.59,0,8.53-.09,12.46.08.84,0,1.64,1,2.45,1.57-.75.64-1.48,1.83-2.24,1.85-5.62.16-11.24.08-17.23.08Z"></path><path class="cls-1" d="M674.09,175V137.51c3.61-1.27,4.85-.2,4.79,3.5-.18,10.14-.13,20.28,0,30.42C678.89,174.58,678.22,176.38,674.09,175Z"></path><path class="cls-1" d="M312.47,151.7H287.26c-.31-6.26,4.11-11.15,10.59-11.73C305.92,139.24,311.08,143.28,312.47,151.7Z"></path><path class="cls-1" d="M402.2,155.77c1.47,5.48.22,9.3-4,11.86s-9,3.12-13.19.48a7.66,7.66,0,0,1-3-6c.18-1.88,2.45-4.74,4.19-5.06C391.48,156.05,396.94,156.11,402.2,155.77Z"></path><path class="cls-1" d="M134.2,151.62c.6-7.26,5.21-11.58,12.28-11.69,7.39-.12,12,3.88,13.12,11.69Z"></path></svg>