<svg xmlns="http://www.w3.org/2000/svg" id="Layer_1" data-name="Layer 1" viewBox="0 0 378.44 96.03"><defs><style>.cls-1{fill:#999;}.cls-2{fill:#989898;}.cls-3{fill:#9a9a9a;}.cls-4{fill:#b53427;}.cls-5{fill:#4682b5;}.cls-6{fill:#f9b701;}.cls-7{fill:#1d9999;}.cls-8{fill:#f4a361;}.cls-9{fill:#3f7fb2;}.cls-10{fill:#00964a;}.cls-11{fill:#2871a2;}.cls-12{fill:#015a89;}.cls-13{fill:#a12c26;}.cls-14{fill:#177577;}.cls-15{fill:#068444;}.cls-16{fill:#e79e29;}.cls-17{fill:#096b3b;}.cls-18{fill:#8e2221;}.cls-19{fill:#e07d44;}.cls-20{fill:#1da5a3;}.cls-21{fill:#f3b01c;}.cls-22{fill:#851f21;}.cls-23{fill:#e68a4e;}.cls-24{fill:#eb9456;}.cls-25{fill:#198f8f;}.cls-26{fill:#eaa122;}.cls-27{fill:#06753e;}.cls-28{fill:#959595;}.cls-29{fill:#f4a15c;}.cls-30{fill:#00913c;}.cls-31{fill:#eda720;}.cls-32{fill:#01913c;}.cls-33{fill:#00903c;}.cls-34{fill:#1d9a99;}.cls-35{fill:#005082;}.cls-36{fill:#b1220e;}.cls-37{fill:#939393;}.cls-38{fill:#949494;}.cls-39{fill:#e0814d;}.cls-40{fill:#8ec1c2;}.cls-41{fill:#aa2f28;}</style></defs><path class="cls-1" d="M359.37,33.35c-1.76.89-3.77,1.49-5.24,2.73-2.06,1.72-3,1.27-4.61-.68-2.81-3.32-2.25-5.21,1.44-7.15,5.05-2.66,10.25-3.86,15.84-2.55,9.36,2.19,13,10.86,8.23,19.22-2.27,4-5.74,6.85-8.88,10-2.32,2.35-4.94,4.43-7.14,8.4,5.4,0,10.23.15,15.05,0,3.14-.12,4.38.75,4.38,4.17,0,3.58-1.61,4-4.55,4-7.31-.14-14.63-.17-21.93,0-3.09.08-4.06-1-3.94-4,.19-5,2.5-8.9,5.74-12.33,3.54-3.74,7.45-7.13,10.9-10.93,3.91-4.31,3.28-7.66-1.61-10.9C361.81,32.35,360.58,32.19,359.37,33.35Z"></path><path class="cls-2" d="M254.69,57.46c5.16-.08,10.33-.12,15.49,0,2.24,0,3.63-.74,3.65-3,.06-6.09-3.14-15.91-12.34-17.36a12.19,12.19,0,0,0-6.59,0A13.92,13.92,0,0,0,242.18,49a30.34,30.34,0,0,0,0,11.24v0c1,6.5,5.33,10.35,13.07,11.75a21.65,21.65,0,0,1,8.89,0,18.43,18.43,0,0,1,2.9-.47c4.84,0,3.76-3.18,3.4-6.12-.55-4.4-3.26-1-4.89-1.32-1-.24-2.24.35-3.38.54-3.42.59-6.39-.67-9.19-2.38a3.41,3.41,0,0,1-1.55-3.48C251.78,56.82,253.51,57.48,254.69,57.46Zm3.09-13.2c3.38.11,6.39,2,6,5.2-.37,3.41-4.12.82-6.22,1.9-1.91-1.23-5.7,1.71-6-2.11C251.42,45.89,254.34,44.16,257.78,44.26Z"></path><path class="cls-1" d="M210.18,45.22c-.66-4.54-3.63-6.85-7.74-8.07-4.6-1.37-9.17-.73-13.82-.13-3.09.39-4.11,1.16-3.68,4.64.47,3.84,2.22,3.73,5,3.12,3.11-.69,6.26-1,9.27.46a3.67,3.67,0,0,1,2.13,4.12c-.4,2.17-2.14.83-3.26.88a35.94,35.94,0,0,0-6.93.5c-7.11,1.69-10.08,4.88-9.9,10.95S185,71,192.33,72a23.17,23.17,0,0,1,8.86,0,20.42,20.42,0,0,0,9.19-1.77C210.11,61.89,210.35,53.55,210.18,45.22ZM196.92,65c-2.82-.26-6-.4-5.78-4.43s3.75-3.5,6.34-3.82c3.19-.39,4.58,1.23,3.92,4.38C202.07,65,199.65,65.27,196.92,65Z"></path><path class="cls-1" d="M227.32,72c-6.87-1.59-9.81-4.66-10-11.52-.26-9.6-.06-19.2-.14-28.8,0-5.43,4.52-3.21,7-4,3-1,2.52,2,2.29,3.5-.83,5.22,1.4,6.74,6.3,6.15,1.79-.21,4-.93,5.6.86-1.53,2.12.2,4.75-1.1,6.9-.33,0-.67.06-1,.13-3.11.68-7.94-1.8-9.12,1.44-1.71,4.69-1.24,10.21.61,15.15,1,2.7,3.69,2.79,6,2.34,3.73-.73,5.81,0,5.89,4.31s-3.26,3-5.44,3.6A13.9,13.9,0,0,0,227.32,72Z"></path><path class="cls-1" d="M291.26,72C281,70.37,275.38,61.77,277.43,51c2-10.29,11.06-16.24,21.55-14.4,3.91.69,6.09,1.59,4.44,6.33-1,3-2.79,2.22-4.65,2-8.25-.93-11.9,2.4-11.56,10.59.28,6.81,4.19,9.81,12.14,8.41,3.62-.64,4.72-.16,5.39,3.6.82,4.59-2.14,4-4.6,4.41A22.69,22.69,0,0,0,291.26,72Z"></path><path class="cls-1" d="M123.37,72c-9-2-13.17-6.95-13.9-16.59-.59-7.9,4-14.85,11.92-18,4.28-.13,8.56-.08,12.84,0,3.66,1,1.9,3.55,1.51,5.66-.49,2.6-2.32,2.22-4.23,2-9.5-1.21-14.39,5-11.25,14,2,5.67,6.65,5.72,11.1,5,3.65-.64,5.32-.14,5.85,3.74.6,4.36-2.49,3.83-5,4.29A22.45,22.45,0,0,0,123.37,72Z"></path><path class="cls-3" d="M141.53,55.16c0-3.81.27-7.65-.07-11.43s1.24-5.46,4.82-6c4.57-.67,9.08-1.9,13.75-.72,1.77.44,4.4-.32,3.56,3.13-.59,2.44.06,5.77-4.27,5-1-.17-2,0-3-.16-3.82-.51-5.3.89-5.06,4.93.35,5.79-.14,11.62.17,17.41.21,3.94-1.77,4.16-4.82,4.16s-5.54-.1-5.17-4.38C141.8,63.15,141.54,59.14,141.53,55.16Z"></path><path class="cls-4" d="M58.42,14.23c-11.57,5.28-22,12.65-33.3,18.49-1.86-8.19-1.68-8.53,5.25-12.44,7.5-4.24,14.94-8.59,22.47-12.8C56.21,5.6,62,9,62.06,12.77,61.41,14.65,60,14.69,58.42,14.23Z"></path><path class="cls-5" d="M77.24,42.37,47.52,25.17c6-5.78,6.56-5.82,13.37-1.87,7.17,4.15,14.4,8.21,21.57,12.37,3,1.74,4.38,7.54,2.47,10.23-.2.29-1.2,0-1.83,0a3.47,3.47,0,0,1-2.49-.52C79.35,44.53,78,43.79,77.24,42.37Z"></path><path class="cls-6" d="M5.52,52.41,38.91,71.15c-4.93,5.36-9.6,5-15.17,1.22C17.59,68.14,10.83,64.8,4.33,61.09-.29,58.45-1.19,54.7,1.51,49.28,4,48.87,5.68,49.46,5.52,52.41Z"></path><path class="cls-7" d="M28.3,82.05,60.68,63.51c2,7.92,1.6,8.78-4.82,12.39-5.93,3.33-12.09,6.36-17.64,10.24C33,89.78,28.45,90.08,23.61,86c-.82-1.39.35-1.93,1.14-2.64C25.74,82.41,27.24,82.84,28.3,82.05Z"></path><path class="cls-8" d="M18.39,55.07c-4.9-1.35-6.56-4.35-6.19-9.53a156.79,156.79,0,0,0,0-22.42c-.36-5.21,1.49-8.13,6.23-9.62,1.57.68,1.41,2.07,1.41,3.39q0,17.38,0,34.79C19.85,53,19.86,54.36,18.39,55.07Z"></path><path class="cls-2" d="M167.32,70.16c-.06-8.78-.13-17.56-.16-26.33,0-7.36,1.55-8.32,9.22-5.68-1.42,6.22-.26,12.53-.6,18.79-.12,2.16,0,4.32,0,6.49C175.76,71.49,175.76,71.49,167.32,70.16Z"></path><path class="cls-9" d="M325.39,51.54c0-8.81-.05-17.61,0-26.42,0-1.6-.94-4.16,2.06-4.11,2.71,0,1.67,2.45,1.68,3.84q.1,26.67,0,53.35c0,1.38,1,3.77-1.89,3.61-2.58-.14-1.86-2.34-1.87-3.84C325.36,69.16,325.39,60.35,325.39,51.54Z"></path><path class="cls-10" d="M66.27,40,72.41,44a296.49,296.49,0,0,1-.07,36L66.4,83.31A4.06,4.06,0,0,1,65,79.71c.83-13-.25-25.94.66-38.89Z"></path><path class="cls-11" d="M85.38,68.19c1.56,6.49-4.33,6.12-7.79,8.88-.18-3.74-.32-6.83-.46-9.92-.62-3.73-.14-7.49-.27-11.22.63-1.6,1.37-.75,2.11-.1C82.7,59.13,85.52,62.89,85.38,68.19Z"></path><path class="cls-12" d="M85.38,68.19c.1-6-6.24-8.11-7.9-13-1.36-2.5-.37-5.19-.62-7.78-.39-4,1.34-4.33,4.27-2.31l2,.85c.45.61.9,1.22,1.36,1.82,1.09,4.43-.52,9,.89,13.45Z"></path><path class="cls-3" d="M177.43,27.19c0,3.65-2.21,5.68-5.47,5.71-3.47,0-5.88-2-5.8-5.89.08-3.71,2.56-5.5,5.73-5.47S177.44,23.48,177.43,27.19Z"></path><path class="cls-13" d="M77.31,19.38c2.7,1,5.63,1.73,7.08,4.67.81,1.7.26,3.52.41,5.27-.52,2.54-2.34.78-3.54,1.07-4.55-1.53-8.31-4.47-12.31-7C71.31,21.2,75,21.68,77.31,19.38Z"></path><path class="cls-14" d="M20.35,84.2l-8-5.07c1.69-3.52,4.89-4.09,8.32-4.19C23.05,76.83,28,76,27.31,81.11c-.56,1.42-1.92,1.92-3.07,2.68A3.16,3.16,0,0,1,20.35,84.2Z"></path><path class="cls-15" d="M52.49,91.18c-3.19,2-6.38,4-10.15,4.85-2-2.68-1.8-5.37-.06-8.07a34.14,34.14,0,0,1,9-4.95C53.07,85.54,51.92,88.49,52.49,91.18Z"></path><path class="cls-16" d="M5.52,52.41c-.69-1.86-2.54-2.25-4-3.13C-.36,47.13.26,44.62.45,42.17c1-.77-.27-3.36,1.54-2.92,2.19.52,5.49-.66,6.33,2.93.07,2.49,0,5,.24,7.45S7.3,52.33,5.52,52.41Z"></path><path class="cls-17" d="M64.45,84.16a17.53,17.53,0,0,1-6.88,4.08c-4.29-2.12-2.73-5.14-1.24-8.14l6-4c2-.94,2.7.34,2.85,1.94C65.38,80.12,65.71,82.25,64.45,84.16Z"></path><path class="cls-18" d="M77.31,19.38c-.91,5.21-5.35,3.15-8.36,4a16.35,16.35,0,0,1-5.57-3.21c.77-3.8,3.87-4.35,6.92-5C72.85,16.27,75.37,17.32,77.31,19.38Z"></path><path class="cls-19" d="M22.36,11.39C25,9,28.18,7.6,31.43,6.3c2.5.8.64,2.36.33,3.27C31,11.81,31,14.38,29.38,16.3c-1.89,2.1-4.91,2.16-7,3.87A16.87,16.87,0,0,1,22.36,11.39Z"></path><path class="cls-20" d="M3.39,74C-2.56,72.09,1.51,67.3,0,63.36c4.89,1.84,8.61,4.35,12.39,6.76A18.19,18.19,0,0,1,3.39,74Z"></path><path class="cls-21" d="M.45,31.19c-.81-4.54-.5-8.44,4.74-10.37,2.33-.86,3.43-.85,3.31,2s-.13,5.6-.19,8.4A20.38,20.38,0,0,0,.45,31.19Z"></path><path class="cls-22" d="M70.3,15.25c-1.79,2.37-5.3,2.35-6.92,5a39.37,39.37,0,0,0-4.79-2.36c-3.4-1.15-.76-2.39-.17-3.62l3.64-1.46C65.71,10.61,67.77,13.7,70.3,15.25Z"></path><path class="cls-23" d="M29.38,16.3c-.75-3.62,1.48-6.65,2.05-10,1.36-1.51,3.2-2.21,5-3,2-1.06,2.34.26,1.92,1.66-.74,2.44-.64,5.11-1.93,7.4A24.38,24.38,0,0,1,29.38,16.3Z"></path><path class="cls-24" d="M36.4,12.33a9.64,9.64,0,0,1,1-7.55c.65-1.17,0-1.39-.94-1.51C38.93,2,40.82-1,44.31.33c.26,2.74-1.61,5.23-.9,8Z"></path><path class="cls-25" d="M20.69,74.94l-8.32,4.19c-2.3-.48-4-2.09-5.93-3.21,1.41-3,4.49-3.71,7.06-5.11A23.66,23.66,0,0,1,20.69,74.94Z"></path><path class="cls-26" d="M8.32,42.18C5.7,41,3.08,39.09.45,42.17c0-2,0-4,0-6C1,34.31,2,33.1,4.14,33a3.8,3.8,0,0,1,4.17,3.15Z"></path><path class="cls-27" d="M56.33,80.1c.5,2.7-1.14,5.73,1.24,8.14a11.39,11.39,0,0,1-5.08,2.94c-2.71-2.39-.92-5.42-1.17-8.17A10.48,10.48,0,0,1,56.33,80.1Z"></path><path class="cls-28" d="M210.39,70.22c-2.11-2.06-1.16-4.7-1-7,.3-6-1.25-12.08.84-18A77.67,77.67,0,0,1,210.39,70.22Z"></path><path class="cls-29" d="M18.39,55.07a8.32,8.32,0,0,0,1-4.31q-.06-16.47,0-32.95a7.51,7.51,0,0,0-.94-4.31c1.41-1,2-.63,2,1.08q0,19.8,0,39.61C20.5,56.07,19.63,56.06,18.39,55.07Z"></path><path class="cls-30" d="M65.5,84q-.06-20.88-.09-41.74c0-.68-.35-1.75,1-1.68l0,42.7Z"></path><path class="cls-28" d="M167.32,70.16a19.89,19.89,0,0,1,3,0c3.93.56,5.21-1,5.05-5-.3-7.47-.11-14.95-.06-22.42,0-1.59-.54-3.38,1.08-4.62.05,9.08.12,18.17.15,27.25C176.55,72,173.78,73.37,167.32,70.16Z"></path><path class="cls-8" d="M43.41,8.35c-2.23-3-.88-5.51.9-8,2.11.93,5.77,1.92,5.54,3.49C49.46,6.51,45.89,7.19,43.41,8.35Z"></path><path class="cls-31" d="M8.31,36.19c-2.61-2.84-5.23-2.88-7.85,0,0-1.67,0-3.33,0-5,2.62-2.87,5.24-2.83,7.86,0Z"></path><path class="cls-32" d="M72.34,80q0-18,.07-36c1.21.45,1.11,1.51,1.11,2.48q0,15.59,0,31.19C73.51,78.55,73.7,79.68,72.34,80Z"></path><path class="cls-33" d="M42.28,88,42.34,96c-3.08.09-4.72-2.43-8-3.94Z"></path><path class="cls-34" d="M13.5,70.81C12,73.74,8.92,74.39,6.44,75.92L3.39,74c2.75-1.88,5.53-3.72,9-3.88Z"></path><path class="cls-28" d="M134.23,37.38a21.55,21.55,0,0,1-12.84,0A19.82,19.82,0,0,1,134.23,37.38Z"></path><path class="cls-35" d="M85.35,61.17c-2.08-4.36-.62-9-.89-13.45C86.76,52.07,85.29,56.67,85.35,61.17Z"></path><path class="cls-1" d="M242.18,49l0,11.25A14.9,14.9,0,0,1,242.18,49Z"></path><path class="cls-36" d="M84.3,30.21q0-3.09.08-6.16c2.19,2.68,1.22,5.61.63,8.5a.48.48,0,0,1-.34,0,1.8,1.8,0,0,1-.36-.32A1.42,1.42,0,0,1,84.3,30.21Z"></path><path class="cls-37" d="M123.37,72a10.29,10.29,0,0,1,8.87,0A31.75,31.75,0,0,1,123.37,72Z"></path><path class="cls-38" d="M192.34,72a10.48,10.48,0,0,1,8.86,0Z"></path><path class="cls-38" d="M291.26,72a10.35,10.35,0,0,1,8.88-.06A31.45,31.45,0,0,1,291.26,72Z"></path><path class="cls-39" d="M22.36,11.39v8.78A9.21,9.21,0,0,1,22.36,11.39Z"></path><path class="cls-37" d="M255.29,72a10.13,10.13,0,0,1,8.89,0Z"></path><path class="cls-28" d="M237.25,45.05c.39-2.29-1-4.87,1.09-6.9C238.11,40.47,239.72,43.08,237.25,45.05Z"></path><path class="cls-38" d="M227.32,72a6.58,6.58,0,0,1,6.87,0Z"></path><path class="cls-14" d="M20.35,84.2A4.24,4.24,0,0,0,24.2,83c1.06-.43,1.23.08,1,1a2.4,2.4,0,0,0-1.61,2A5.1,5.1,0,0,1,20.35,84.2Z"></path><path class="cls-1" d="M261.5,37.11l-6.59,0A6.46,6.46,0,0,1,261.5,37.11Z"></path><path class="cls-38" d="M359.37,33.35c.89-2,2.48-1,3.86-.87,0,0,.13.29.1.42a1.32,1.32,0,0,1-.28.4Z"></path><path class="cls-40" d="M25.22,84l-1-1,3.11-1.87,1,.94A4.57,4.57,0,0,1,25.22,84Z"></path><path class="cls-41" d="M84.3,30.21c0,.67,0,1.35,0,2a5,5,0,0,1-3-1.84C82.19,29,83.3,30.54,84.3,30.21Z"></path></svg>