<svg xmlns="http://www.w3.org/2000/svg" id="Layer_1" data-name="Layer 1" viewBox="0 0 380.86 380.94"><defs><style>.cls-1{fill:#006985;}.cls-2{fill:#fff;}.cls-3{fill:#00b8d6;}.cls-4{fill:#004a8e;}.cls-5{fill:#fff100;}.cls-6{fill:#231f20;}</style></defs><polygon class="cls-1" points="38 110.89 59.4 132.29 80.79 110.89 38 110.89"></polygon><path class="cls-2" d="M168.43,376.69a45.68,45.68,0,0,1-32.54-13.48L17.73,245.05a46,46,0,0,1,0-65.08l110-110V33.17A28.88,28.88,0,0,1,156.55,4.32H250.2c.74-.05,1.41-.07,2-.07h2.83a29.21,29.21,0,0,1,21.44,9.62l89.7,89.7a35.69,35.69,0,0,1,0,50.42l-33.58,33.57v28.7a36.56,36.56,0,0,1-11.78,26.94l-.31.34c-.4.47-.86,1-1.38,1.52L201,363.21a45.69,45.69,0,0,1-32.55,13.48Z"></path><path class="cls-3" d="M255.05,8.5a24.1,24.1,0,0,1,12.3,3.37,24.55,24.55,0,0,1,6,4.92l8.86,8.86h0l36.49,36.5h0l44.42,44.42a31.4,31.4,0,0,1,0,44.4L328.36,185.8v26.62h0v.18h0v3.66a32.51,32.51,0,0,1-10.59,24c-.54.61-1,1.24-1.64,1.82l-17.26,17.26H38L20.74,242.05a41.77,41.77,0,0,1,0-59.08L132,71.76V33.17a24.6,24.6,0,0,1,24.6-24.6h93.77c.64,0,1.27-.07,1.9-.07h2.83m0-8.5h-2.83c-.66,0-1.36,0-2.14.06H156.55a33.15,33.15,0,0,0-33.1,33.11V68.24L14.73,177a50.28,50.28,0,0,0,0,71.1L132.88,366.22a50.29,50.29,0,0,0,71.1,0L322.14,248.06c.63-.62,1.14-1.21,1.59-1.72l.15-.18a40.7,40.7,0,0,0,13-29.9v-2.82h0v-1.37h0V189.32L369.19,157a39.94,39.94,0,0,0,0-56.43L324.78,56.15l0,0h0L288.27,19.64l-8.7-8.7A33.49,33.49,0,0,0,255.05,0Z"></path><path class="cls-4" d="M288.59,130.05h24.6a6.16,6.16,0,0,1,6.16,6.16v24.61a6.15,6.15,0,0,1-6.16,6.15h-24.6a6.15,6.15,0,0,1-6.15-6.15V136.21a6.15,6.15,0,0,1,6.15-6.16"></path><path class="cls-5" d="M285.51,148.51h2.87v12.3h-2.87Zm17.37,7.92h-.57c-.3,0-.59,0-.84.07-1.11.18-1.85.62-1.85,1.49s.54,1.18,1.33,1.18a2,2,0,0,0,1.84-1.17.08.08,0,0,1,0,0s0-.08,0-.1a1.8,1.8,0,0,0,.05-.46Zm-1.64-5.11c3.17,0,4.26,1.82,4.26,4v5.45h-2.33l-.32-.95h0A3.75,3.75,0,0,1,300,161a2.92,2.92,0,0,1-3.17-2.82c0-2.38,2.29-3.59,6-3.58v-.1c0-.43-.36-1.29-2-1.28A5.82,5.82,0,0,0,298,154l-.53-1.82a7.66,7.66,0,0,1,3.78-.87m12.19.27V157a1.5,1.5,0,0,1-.1.58,1.84,1.84,0,0,1-1.72,1.19c-1.18,0-1.69-.86-1.69-2.31v-4.87h-2.8V157a5.54,5.54,0,0,0,.27,1.84,3.43,3.43,0,0,0,.7,1.25,2.57,2.57,0,0,0,1.09.72,3.86,3.86,0,0,0,1.39.24,3.91,3.91,0,0,0,1.18-.17,3.76,3.76,0,0,0,.88-.39,3.12,3.12,0,0,0,.62-.49,4.15,4.15,0,0,0,.39-.47l.36,1.3h2.27v-9.22Zm-22.36-3.08v3.08h-1.3v2.1h1.3v3.75a3.92,3.92,0,0,0,.79,2.74,3.13,3.13,0,0,0,2.26.86,3.69,3.69,0,0,0,1.55-.27v-2.15a1.64,1.64,0,0,1-.59.08c-1,0-1.22-.61-1.22-1.75v-3.26h1.78v-2.1h-1.78v-3.08Zm21.3,0L310.64,151h2l2.44-2.48Z"></path><path class="cls-6" d="M276.45,204.23a15.35,15.35,0,0,1-15.35,15.35H243a15.35,15.35,0,0,1-15.35-15.35V184.49A15.35,15.35,0,0,1,243,169.14H261.1a15.35,15.35,0,0,1,15.35,15.35Zm-16.67-23.4H244.33a4.17,4.17,0,0,0-4.17,4.17v18.73a4.17,4.17,0,0,0,4.17,4.17h15.45a4.17,4.17,0,0,0,4.17-4.17V185a4.17,4.17,0,0,0-4.17-4.17m-162.7,26a112.53,112.53,0,0,1-25.56.51c-3.74-.34-4.07-3.22-4.07-3.76v-19c0-3.43,3-3.45,4.61-3.59,5.84-.55,25,.53,25,.53v-10.7a130.57,130.57,0,0,0-28.19-1.43,15.65,15.65,0,0,0-8.72,3.06A12.71,12.71,0,0,0,56,178.39C54.9,181.68,55,191.06,55,192.18v6.54c0,5.71.29,9.64,1.59,12.58,3.28,7.46,10,7.71,12.32,8,7.54,1,28.22-1.25,28.22-1.25Zm46.6-37.74v34.59a4.17,4.17,0,0,1-4.17,4.17H124.25a4.17,4.17,0,0,1-4.16-4.17V169.14H107.58v36.74a13.7,13.7,0,0,0,13.71,13.7h19.85c5.09,0,6.48-1.26,8.53-3.31.27-.26,1.32-1.31,1.6-1.6l1.6-1.6c2-2,3.31-3.44,3.31-8.53v-35.4ZM206.93,185v18.73a4.17,4.17,0,0,1-4.17,4.17H183.19a4.17,4.17,0,0,1-4.16-4.17V185a4.17,4.17,0,0,1,4.16-4.17h19.57a4.17,4.17,0,0,1,4.17,4.17m-1.75-15.86H188.79c-6.07,0-5-.24-9.76,3.55V151.9H166.52v52.64c0,5.09,1.26,6.48,3.31,8.53l1.6,1.6,1.6,1.6c2.05,2,3.45,3.31,8.53,3.31h23.62a14.25,14.25,0,0,0,14.25-14.25V183.4a14.26,14.26,0,0,0-14.25-14.26"></path><rect class="cls-3" x="38" y="68.05" width="141.2" height="42.84"></rect><path class="cls-2" d="M55,97.33V81.89h10v3H58.45V88h5.32v3H58.45v3.36h6.7v3Z"></path><path class="cls-2" d="M79.44,97.62a6.2,6.2,0,0,1-4.68-1.74,6.62,6.62,0,0,1-1.68-4.82V81.89h3.59V91a4.06,4.06,0,0,0,.72,2.59,2.48,2.48,0,0,0,2,.91,2.44,2.44,0,0,0,2-.92,3.94,3.94,0,0,0,.73-2.54V81.89h3.59v8.94a7,7,0,0,1-1.7,5A6,6,0,0,1,79.44,97.62Z"></path><path class="cls-2" d="M108.16,97.62a11.33,11.33,0,0,1-4.71-1V93.58a10,10,0,0,0,4.21,1.09,3.49,3.49,0,0,0,1.91-.43,1.43,1.43,0,0,0,.65-1.26,1.31,1.31,0,0,0-.27-.83,2.54,2.54,0,0,0-.93-.7,15.18,15.18,0,0,0-2-.78A6,6,0,0,1,104.37,89a3.94,3.94,0,0,1-.92-2.61,4.27,4.27,0,0,1,1.61-3.49,6.75,6.75,0,0,1,4.33-1.29,8.85,8.85,0,0,1,3.5.69v3a8.11,8.11,0,0,0-3.36-.75,3.29,3.29,0,0,0-1.82.41,1.36,1.36,0,0,0,0,2.3,9.53,9.53,0,0,0,2.35,1A6.53,6.53,0,0,1,113,90a4.11,4.11,0,0,1,1,2.79,4.41,4.41,0,0,1-1.56,3.56A6.4,6.4,0,0,1,108.16,97.62Z"></path><path class="cls-2" d="M128.4,97.62a7.14,7.14,0,0,1-3.86-1A6.65,6.65,0,0,1,122,93.75a9.34,9.34,0,0,1-.88-4.13,9,9,0,0,1,.94-4.24,6.87,6.87,0,0,1,2.61-2.8,7.69,7.69,0,0,1,7.62,0,6.73,6.73,0,0,1,2.53,2.85,9.31,9.31,0,0,1,.88,4.13,9.08,9.08,0,0,1-.94,4.24,7,7,0,0,1-2.61,2.8A7.3,7.3,0,0,1,128.4,97.62Zm0-3.08a3.09,3.09,0,0,0,2.65-1.32,7.18,7.18,0,0,0,0-7.21,3.13,3.13,0,0,0-2.65-1.33A3.08,3.08,0,0,0,125.77,86a7.23,7.23,0,0,0,0,7.22A3.12,3.12,0,0,0,128.42,94.54Z"></path><path class="cls-2" d="M149.85,97.62a6.2,6.2,0,0,1-4.68-1.74,6.62,6.62,0,0,1-1.68-4.82V81.89h3.59V91a4.06,4.06,0,0,0,.72,2.59,2.48,2.48,0,0,0,2,.91,2.44,2.44,0,0,0,2-.92,3.94,3.94,0,0,0,.73-2.54V81.89h3.59v8.94a7,7,0,0,1-1.7,5A6,6,0,0,1,149.85,97.62Z"></path><path class="cls-2" d="M107.68,293.27a12.67,12.67,0,0,1-5.25-1.07v-3.44a11.27,11.27,0,0,0,4.69,1.22,3.86,3.86,0,0,0,2.13-.48,1.58,1.58,0,0,0,.73-1.41,1.52,1.52,0,0,0-.3-.93,2.88,2.88,0,0,0-1-.77,16.23,16.23,0,0,0-2.18-.87,6.52,6.52,0,0,1-3-1.89,4.35,4.35,0,0,1-1-2.91,4.74,4.74,0,0,1,1.8-3.89,7.49,7.49,0,0,1,4.83-1.44,9.94,9.94,0,0,1,3.9.77v3.31a9,9,0,0,0-3.75-.84,3.79,3.79,0,0,0-2,.46,1.51,1.51,0,0,0-.7,1.33,1.48,1.48,0,0,0,.7,1.23,10,10,0,0,0,2.62,1.11,7.15,7.15,0,0,1,3.25,2,4.58,4.58,0,0,1,1.08,3.11,4.89,4.89,0,0,1-1.74,4A7.1,7.1,0,0,1,107.68,293.27Z"></path><path class="cls-2" d="M125.05,292.94v-13.8h-4.92v-3.41H134v3.41h-4.93v13.8Z"></path><path class="cls-2" d="M144.05,275.73h4.38l6.1,17.21h-4.11l-1.12-3.55h-6.22l-1.1,3.55h-4Zm0,10.63h4.28l-2.14-6.86Z"></path><path class="cls-2" d="M161.49,292.94V275.73H167a8.35,8.35,0,0,1,5.22,1.46,4.8,4.8,0,0,1,1.9,4,4.93,4.93,0,0,1-.89,2.9,5.76,5.76,0,0,1-2.58,2l4.59,6.84h-4.44L167,286.79h-1.58v6.15Zm3.88-14.1v4.89H167a3.56,3.56,0,0,0,2.28-.66,2.24,2.24,0,0,0,.81-1.84,2.13,2.13,0,0,0-.8-1.77,3.59,3.59,0,0,0-2.26-.62Z"></path><path class="cls-2" d="M185.44,292.94v-13.8h-4.92v-3.41h13.84v3.41h-4.92v13.8Z"></path><path class="cls-2" d="M208.62,293.27a6.93,6.93,0,0,1-5.22-1.94,7.4,7.4,0,0,1-1.87-5.38V275.73h4v10.2a4.52,4.52,0,0,0,.81,2.89,2.74,2.74,0,0,0,2.28,1,2.71,2.71,0,0,0,2.24-1,4.39,4.39,0,0,0,.82-2.83V275.73h4v10a7.77,7.77,0,0,1-1.9,5.53A6.69,6.69,0,0,1,208.62,293.27Z"></path><path class="cls-2" d="M223.51,275.73H229a8.17,8.17,0,0,1,5.19,1.49,4.9,4.9,0,0,1,1.9,4.09,5.15,5.15,0,0,1-1.93,4.27,8.3,8.3,0,0,1-5.34,1.54h-1.45v5.82h-3.88Zm3.88,3.11V284h1.66a3.37,3.37,0,0,0,2.27-.7,2.45,2.45,0,0,0,.81-1.95,2.28,2.28,0,0,0-.79-1.86,3.4,3.4,0,0,0-2.24-.66Z"></path><path class="cls-2" d="M137.14,322.71l5-5.26a15.26,15.26,0,0,0,2.27-2.92A5.2,5.2,0,0,0,145,312a3,3,0,0,0-.9-2.3,3.38,3.38,0,0,0-2.41-.86,6.72,6.72,0,0,0-4,1.3v-2a6.47,6.47,0,0,1,2-.93,8.66,8.66,0,0,1,2.35-.32,5.42,5.42,0,0,1,3.81,1.36,4.55,4.55,0,0,1,1.47,3.52,6.78,6.78,0,0,1-.81,3.16,15.88,15.88,0,0,1-2.69,3.54l-3.82,4h7.73v1.94H137.14Z"></path><path class="cls-2" d="M160.47,324.77a5.11,5.11,0,0,1-4.47-2.33,11.54,11.54,0,0,1-1.6-6.59,11.81,11.81,0,0,1,1.58-6.61,5.43,5.43,0,0,1,8.94,0,11.6,11.6,0,0,1,1.6,6.59,11.72,11.72,0,0,1-1.59,6.61A5.07,5.07,0,0,1,160.47,324.77Zm0-1.94a3,3,0,0,0,2.77-1.83,14.25,14.25,0,0,0,0-10.36,3,3,0,0,0-5.57,0,11.07,11.07,0,0,0-1,5.18,10.94,10.94,0,0,0,1,5.17A3,3,0,0,0,160.47,322.83Z"></path><path class="cls-2" d="M172.81,322.71l5-5.26a15.68,15.68,0,0,0,2.27-2.92,5.2,5.2,0,0,0,.66-2.54,3,3,0,0,0-.9-2.3,3.39,3.39,0,0,0-2.42-.86,6.69,6.69,0,0,0-4,1.3v-2a6.47,6.47,0,0,1,2-.93,8.66,8.66,0,0,1,2.35-.32,5.42,5.42,0,0,1,3.81,1.36,4.55,4.55,0,0,1,1.47,3.52,6.78,6.78,0,0,1-.81,3.16,15.88,15.88,0,0,1-2.69,3.54l-3.82,4h7.72v1.94H172.81Z"></path><path class="cls-2" d="M190.05,322.71l5-5.26a15.68,15.68,0,0,0,2.27-2.92A5.2,5.2,0,0,0,198,312a3,3,0,0,0-.91-2.3,3.35,3.35,0,0,0-2.41-.86,6.69,6.69,0,0,0-4,1.3v-2a6.47,6.47,0,0,1,2-.93,8.66,8.66,0,0,1,2.35-.32,5.42,5.42,0,0,1,3.81,1.36,4.55,4.55,0,0,1,1.47,3.52,6.78,6.78,0,0,1-.81,3.16,15.88,15.88,0,0,1-2.69,3.54l-3.82,4h7.72v1.94H190.05Z"></path></svg>