<svg xmlns="http://www.w3.org/2000/svg" id="Layer_1" data-name="Layer 1" viewBox="0 0 273.43 397.39"><defs><style>.cls-1{fill:none;}.cls-2{fill:#002171;}.cls-3{fill:#fff;}.cls-4{fill:#e60000;}</style></defs><rect id="backgroundrect" class="cls-1" width="273.43" height="397.39"></rect><g id="g45"><polygon id="svg_1" data-name="svg 1" class="cls-2" points="253.4 334.59 253.4 233.34 20.03 233.34 20.03 334.59 136.72 397.38 253.4 334.59"></polygon><path id="svg_3" data-name="svg 3" class="cls-3" d="M100.26,349.68h6a4.92,4.92,0,0,1,3.26,1,3.66,3.66,0,0,1,1.26,2.94,3.16,3.16,0,0,1-1.4,2.82,3,3,0,0,1,1.44,1.22,3.89,3.89,0,0,1,.56,2.15,3.84,3.84,0,0,1-1.27,3.12,5.08,5.08,0,0,1-3.39,1.1h-6.51Zm3,2.63v3.15h2.88c1.11,0,1.66-.53,1.66-1.57a1.47,1.47,0,0,0-.48-1.18,2,2,0,0,0-1.33-.4Zm0,5.68v3.47h3.15c1.32,0,2-.57,2-1.72a1.64,1.64,0,0,0-.53-1.33,2.27,2.27,0,0,0-1.4-.42Z"></path><path id="svg_4" data-name="svg 4" class="cls-3" d="M122.42,364.1l-2.82-5.2h-2.41v5.2h-3V349.68h6.11a4.65,4.65,0,0,1,3.37,1.22,4.6,4.6,0,0,1,1.28,3.41,4.94,4.94,0,0,1-.62,2.53,4,4,0,0,1-1.7,1.59l3.14,5.67Zm-5.25-7.84H120a2,2,0,0,0,1.42-.51,1.81,1.81,0,0,0,.56-1.44,1.77,1.77,0,0,0-.56-1.49,1.92,1.92,0,0,0-1.42-.51h-2.85Z"></path><path id="svg_5" data-name="svg 5" class="cls-3" d="M142.18,364.1H138.9l-1.18-2.77h-6.05l-1.19,2.77h-3.26l6.2-14.42h2.49Zm-9.38-5.21h3.92l-2-4.6Z"></path><path id="svg_6" data-name="svg 6" class="cls-3" d="M148.51,349.46a5.94,5.94,0,0,1,3.83,1.19,4.11,4.11,0,0,1,1.51,3.24l-3,.17a2,2,0,0,0-.62-1.48,2.41,2.41,0,0,0-1.63-.53,2.3,2.3,0,0,0-1.56.47,1.55,1.55,0,0,0-.57,1.26,1.21,1.21,0,0,0,.6,1.13,8.61,8.61,0,0,0,2.21.75,10.73,10.73,0,0,1,3.64,1.53,3.21,3.21,0,0,1,1.21,2.7,3.85,3.85,0,0,1-1.5,3.3,6.24,6.24,0,0,1-3.81,1.13,6.75,6.75,0,0,1-4.15-1.22,4,4,0,0,1-1.63-3.41l3-.17a2.08,2.08,0,0,0,.8,1.61,3.11,3.11,0,0,0,1.95.6c1.52,0,2.28-.55,2.28-1.66a1.31,1.31,0,0,0-.69-1.18,10.32,10.32,0,0,0-2.28-.81c-.77-.2-1.39-.38-1.82-.54a8.11,8.11,0,0,1-1.44-.73,2.89,2.89,0,0,1-1.1-1.2,3.85,3.85,0,0,1-.34-1.83,4.14,4.14,0,0,1,1.33-3.15A5.25,5.25,0,0,1,148.51,349.46Z"></path><path id="svg_7" data-name="svg 7" class="cls-3" d="M159.79,364.1h-3V349.68h3Z"></path><path id="svg_8" data-name="svg 8" class="cls-3" d="M166,361.46h6.29v2.64H163V349.68h3Z"></path><rect id="svg_9" data-name="svg 9" class="cls-4" x="20.03" width="233.35" height="233.35"></rect><path id="svg_10" data-name="svg 10" class="cls-3" d="M78.09,36v3.17a18.88,18.88,0,0,1-5.61,14.22,20.07,20.07,0,0,1-14.59,5.46,21.47,21.47,0,0,1-15.73-6.14A20.58,20.58,0,0,1,36,37.59,21.11,21.11,0,0,1,56.76,16.18h.73a20.61,20.61,0,0,1,17.85,9.55l-6.89,4A12.62,12.62,0,0,0,57.51,24a12.91,12.91,0,0,0-9.64,3.86,13.09,13.09,0,0,0-3.76,9.66,13.07,13.07,0,0,0,3.81,9.59,13.89,13.89,0,0,0,10.17,3.75c6.28,0,10.49-2.93,11.94-7.78H57.64V36Z"></path><path id="svg_11" data-name="svg 11" class="cls-3" d="M90.2,33.74a8.51,8.51,0,0,1,8.44-5.61v8.42A8,8,0,0,0,92.75,38a6.85,6.85,0,0,0-2.55,6V58H83V28.8H90.2Z"></path><path id="svg_12" data-name="svg 12" class="cls-3" d="M110.74,46.45q1.5,5.46,8.26,5.47A7.82,7.82,0,0,0,125.56,49l6.07,3.52a14.59,14.59,0,0,1-12.76,6.25,15.66,15.66,0,0,1-11.65-4.39,14.94,14.94,0,0,1-4.39-11,15.12,15.12,0,0,1,4.34-10.94,14.76,14.76,0,0,1,11.12-4.44,13.87,13.87,0,0,1,10.59,4.44,15.42,15.42,0,0,1,4.21,10.94,21.4,21.4,0,0,1-.29,3.1Zm14.82-5.85a7.09,7.09,0,0,0-7.29-5.91,7.3,7.3,0,0,0-7.68,5.91Z"></path><path id="svg_13" data-name="svg 13" class="cls-3" d="M160.3,28.71h7.55V58H160.3V54.52a11.43,11.43,0,0,1-9.53,4.27,13.27,13.27,0,0,1-10.06-4.45,15.64,15.64,0,0,1-4.16-10.94,15.53,15.53,0,0,1,4.16-10.93A13.38,13.38,0,0,1,150.77,28a11.42,11.42,0,0,1,9.53,4.29Zm-8.13,22.88a7.84,7.84,0,0,0,5.8-2.28,8,8,0,0,0,2.33-6A7.79,7.79,0,0,0,158,37.44a8.31,8.31,0,0,0-11.59,0,8,8,0,0,0-2.28,5.91,8.25,8.25,0,0,0,2.28,6A7.83,7.83,0,0,0,152.17,51.59Z"></path><path id="svg_14" data-name="svg 14" class="cls-3" d="M192.6,36h-6.67V48.14c0,3.16,2.28,3.21,6.6,3V58c-10.35,1.16-14.14-1.83-14.14-9.83V36h-5v-7.3h5.11V22.8l7.47-2.27v8.18h6.6Z"></path><path id="svg_15" data-name="svg 15" class="cls-3" d="M56.69,68.45a13.64,13.64,0,0,1,9.94,4,13.83,13.83,0,0,1,0,19.54h0a13.74,13.74,0,0,1-9.94,4H49.4v13.41h-8V68.45Zm0,20a6.21,6.21,0,0,0,0-12.41H49.4V88.41Z"></path><path id="svg_16" data-name="svg 16" class="cls-3" d="M76.18,109.37V68.83h7.54v40.54Z"></path><path id="svg_17" data-name="svg 17" class="cls-3" d="M114,80.21h7.55v29.16H114V106a11.44,11.44,0,0,1-9.53,4.27,13.29,13.29,0,0,1-10.07-4.5,15.7,15.7,0,0,1-4.15-10.94,15.48,15.48,0,0,1,4.15-10.94,13.37,13.37,0,0,1,10.07-4.52A11.39,11.39,0,0,1,114,83.62ZM105.89,103a7.87,7.87,0,0,0,5.8-2.28,8,8,0,0,0,2.33-6,7.79,7.79,0,0,0-2.33-5.91,8.32,8.32,0,0,0-11.6,0,8,8,0,0,0-2.27,5.91,8.28,8.28,0,0,0,2.27,6A7.87,7.87,0,0,0,105.89,103Z"></path><path id="svg_18" data-name="svg 18" class="cls-3" d="M132.47,105.73a15.46,15.46,0,0,1,11-26.45,14.56,14.56,0,0,1,13.11,7.54l-6.49,3.81a7.29,7.29,0,0,0-6.67-3.86,7.66,7.66,0,0,0-7.84,7.5,4.51,4.51,0,0,0,0,.52,8,8,0,0,0,2.23,5.72,7.55,7.55,0,0,0,5.61,2.23,7.29,7.29,0,0,0,6.73-3.87l6.58,3.76a15.62,15.62,0,0,1-24.3,3.1Z"></path><path id="svg_19" data-name="svg 19" class="cls-3" d="M168.8,97.89q1.5,5.46,8.26,5.47a7.79,7.79,0,0,0,6.54-2.94l6.09,3.48a14.58,14.58,0,0,1-12.76,6.26,15.65,15.65,0,0,1-11.63-4.4,14.87,14.87,0,0,1-4.4-11,15.22,15.22,0,0,1,4.32-10.94,14.87,14.87,0,0,1,11.12-4.45,13.9,13.9,0,0,1,10.6,4.45,15.42,15.42,0,0,1,4.21,10.94,19,19,0,0,1-.3,3.1ZM183.6,92a7,7,0,0,0-7.29-5.91A7.3,7.3,0,0,0,168.65,92Z"></path><path id="svg_20" data-name="svg 20" class="cls-3" d="M66.15,122v7.29h-11v31.61H47V129.28H36.09V122Z"></path><path id="svg_21" data-name="svg 21" class="cls-3" d="M78.75,161.67a15.18,15.18,0,0,1-15.46-14.91v-.53a14.78,14.78,0,0,1,4.45-10.94,15.64,15.64,0,0,1,22,0,14.86,14.86,0,0,1,4.5,10.94,15.27,15.27,0,0,1-15.11,15.44Zm0-7.29a7.73,7.73,0,0,0,5.67-2.28,8.5,8.5,0,0,0,0-11.59,8.22,8.22,0,0,0-11.36,0,8.65,8.65,0,0,0,0,11.59,7.77,7.77,0,0,0,5.69,2.21Z"></path><path id="svg_22" data-name="svg 22" class="cls-3" d="M48.6,214.7l-11.47-41h8.44l7.89,30.42L62,173.74H68.9l8.61,30.42,7.84-30.37h8.47l-11.46,41H73.24l-7.78-27L57.78,214.7Z"></path><path id="svg_23" data-name="svg 23" class="cls-3" d="M108.59,215.52a15.2,15.2,0,0,1-15.46-15v-.51a14.79,14.79,0,0,1,4.45-10.94,15.53,15.53,0,1,1,10.94,26.4Zm0-7.29a7.73,7.73,0,0,0,5.67-2.28,8.52,8.52,0,0,0,0-11.6,8.23,8.23,0,0,0-11.36,0,8.66,8.66,0,0,0,0,11.6,7.77,7.77,0,0,0,5.69,2.19Z"></path><path id="svg_24" data-name="svg 24" class="cls-3" d="M137,190.47a8.93,8.93,0,0,1,8.86-5.61v8.36a8.78,8.78,0,0,0-6.2,1.41,6.7,6.7,0,0,0-2.68,6v14h-7.53V185.48H137Z"></path><path id="svg_25" data-name="svg 25" class="cls-3" d="M178.39,214.7h-8.77L159,201.41V214.7h-7.54v-41H159v24.57L169,185.44h9L166.28,199.9Z"></path><path id="svg_26" data-name="svg 26" class="cls-3" d="M181.14,209.41a6.62,6.62,0,1,1,6.67,6.56h-.05a6.5,6.5,0,0,1-6.62-6.39Zm12.05,0a5.47,5.47,0,1,0-5.47,5.47,5.26,5.26,0,0,0,5.5-5,3.69,3.69,0,0,0,0-.47ZM185.5,206h2.26c1.51,0,2.49.62,2.49,2h0a1.83,1.83,0,0,1-1.33,1.83l1.72,2.77h-1.48L187.57,210h-.69v2.54h-1.42Zm2.26,3c.74,0,1.13-.33,1.13-1h0c0-.7-.42-.93-1.13-.93h-.84v1.82Z"></path><path id="svg_27" data-name="svg 27" class="cls-3" d="M47.18,248.79a14.06,14.06,0,0,1,9,2.91,11.81,11.81,0,0,1,4.49,7.88l-6.09.54a7.52,7.52,0,0,0-2.61-4.55A7.66,7.66,0,0,0,47,254a7.56,7.56,0,0,0-6,2.55,10,10,0,0,0-2.26,6.84,9.71,9.71,0,0,0,2.33,6.94,7.85,7.85,0,0,0,6,2.46A7.7,7.7,0,0,0,52,271.22a7.25,7.25,0,0,0,2.57-4.46l6.13.53a11.88,11.88,0,0,1-4.51,7.8A14.13,14.13,0,0,1,47.21,278a14.59,14.59,0,0,1,0-29.17Z"></path><path id="svg_28" data-name="svg 28" class="cls-3" d="M83.4,269.51H69.93a4.27,4.27,0,0,0,1.14,2.94,4.17,4.17,0,0,0,3,1.05c2,0,3.17-.73,3.64-2.17l5.58.28a7.17,7.17,0,0,1-3,4.59,10.16,10.16,0,0,1-6,1.82,9.82,9.82,0,0,1-7.29-2.77,11.35,11.35,0,0,1,0-14.87,9.73,9.73,0,0,1,7.29-2.75,9.1,9.1,0,0,1,6.81,2.6,9.72,9.72,0,0,1,2.56,7.15ZM74,261.89A3.84,3.84,0,0,0,71.13,263a4.09,4.09,0,0,0-1.2,2.9h7.89a4.45,4.45,0,0,0-1-2.9A3.64,3.64,0,0,0,74,261.89Z"></path><path id="svg_29" data-name="svg 29" class="cls-3" d="M98.33,257.77v5.34a5.5,5.5,0,0,0-3.8,1.22,4.23,4.23,0,0,0-1.4,3.29v9.93H87.66V258H93v2.25A5.86,5.86,0,0,1,98.33,257.77Z"></path><path id="svg_30" data-name="svg 30" class="cls-3" d="M109,262.73V270a2.82,2.82,0,0,0,.82,2.24,3.12,3.12,0,0,0,2.13.73,9.74,9.74,0,0,0,1.7-.2v4.94a21,21,0,0,1-3.06.22,7.75,7.75,0,0,1-5.25-1.64,6.06,6.06,0,0,1-1.83-5v-8.6H99.86V258h3.64v-6.49H109V258h4.58v4.78Z"></path><path id="svg_31" data-name="svg 31" class="cls-3" d="M120.09,248.2a3.3,3.3,0,0,1,3.34,3.26v.1a3.3,3.3,0,0,1-3.3,3.3h0a3.28,3.28,0,0,1-3.3-3.3,3.36,3.36,0,0,1,3.3-3.34Zm2.77,29.35h-5.47V258h5.47Z"></path><path id="svg_32" data-name="svg 32" class="cls-3" d="M137.35,247.91a15.77,15.77,0,0,1,1.94.11v4.78a9.4,9.4,0,0,0-1.3,0,3.29,3.29,0,0,0-2.37.85,2.93,2.93,0,0,0-.93,2.24v2.17h4.56v4.78h-4.56v14.82h-5.47V262.84h-3.64v-4.78h3.64v-2a8,8,0,0,1,2.23-5.89A8.09,8.09,0,0,1,137.35,247.91Zm8,.33a3.33,3.33,0,0,1,3.35,3.32h0a3.35,3.35,0,0,1-5.7,2.33,3.24,3.24,0,0,1-1-2.33,3.39,3.39,0,0,1,3.3-3.34Zm2.77,29.35h-5.47V258h5.47Z"></path><path id="svg_33" data-name="svg 33" class="cls-3" d="M162.36,257.57a9.77,9.77,0,0,1,6.22,2,8.47,8.47,0,0,1,3.08,5.47l-5.47.46a3.64,3.64,0,0,0-1.24-2.41,3.85,3.85,0,0,0-2.64-.89,4,4,0,0,0-3.19,1.44,7.07,7.07,0,0,0,0,8,4,4,0,0,0,3.19,1.44,3.89,3.89,0,0,0,2.66-.86,3.61,3.61,0,0,0,1.26-2.33l5.47.51a8.54,8.54,0,0,1-3.1,5.47,9.57,9.57,0,0,1-6.2,2,10.2,10.2,0,1,1-.86-20.39,6.17,6.17,0,0,1,.86,0Z"></path><path id="svg_34" data-name="svg 34" class="cls-3" d="M183.31,257.57a8.46,8.46,0,0,1,6.07,2,7.83,7.83,0,0,1,2.08,5.88v12.09h-5.35V276a6.63,6.63,0,0,1-5,2,7,7,0,0,1-4.77-1.5,5.33,5.33,0,0,1-1.83-4.3q0-5.61,7.86-6l3.48-.18v-.77c0-2-.84-3-2.53-3a2.56,2.56,0,0,0-2,.76,2.58,2.58,0,0,0-.71,1.83l-5.47-.22a6.52,6.52,0,0,1,2.3-4.87A8.31,8.31,0,0,1,183.31,257.57Zm2.6,12.11-2.95.18c-1.82,0-2.84.76-2.84,2s.76,1.82,2.28,1.82a3.64,3.64,0,0,0,2.53-.84,2.86,2.86,0,0,0,1-2.33Z"></path><path id="svg_35" data-name="svg 35" class="cls-3" d="M216,277.55H210.8v-2a6.36,6.36,0,0,1-2.35,1.83A8.35,8.35,0,0,1,205,278a8.89,8.89,0,0,1-6.81-2.79,11.71,11.71,0,0,1,0-14.78,8.89,8.89,0,0,1,6.81-2.81,6.91,6.91,0,0,1,5.47,2.1V248.09h5.47Zm-10.12-15.24a4.48,4.48,0,0,0-3.44,1.44,5.78,5.78,0,0,0-1.31,4,5.67,5.67,0,0,0,1.31,4,4.47,4.47,0,0,0,3.44,1.42,4.41,4.41,0,0,0,3.36-1.33,5.11,5.11,0,0,0,1.26-3.64v-.88a5.11,5.11,0,0,0-1.26-3.64A4.43,4.43,0,0,0,205.87,262.31Z"></path><path id="svg_36" data-name="svg 36" class="cls-3" d="M223.17,260.38a11.39,11.39,0,0,1,15,0,10.75,10.75,0,0,1,0,14.76,11.35,11.35,0,0,1-15,0A10.75,10.75,0,0,1,223.17,260.38Zm10.94,3.39a4.89,4.89,0,0,0-6.91-.06l0,.06a5.69,5.69,0,0,0-1.33,4,5.58,5.58,0,0,0,1.33,4,4.92,4.92,0,0,0,7,0h0a5.58,5.58,0,0,0,1.33-4,5.72,5.72,0,0,0-1.29-4Z"></path></g><polygon class="cls-3" points="47.23 320.19 50.05 320.19 50.05 314.27 55.85 314.27 55.85 311.92 50.05 311.92 50.05 308.62 56.78 308.62 56.78 306.27 47.23 306.27 47.23 320.19"></polygon><path class="cls-3" d="M66.47,311.36a4.5,4.5,0,0,0-3.56-1.48,4.31,4.31,0,0,0-3.31,1.42,5.56,5.56,0,0,0-1.31,3.92,5.89,5.89,0,0,0,1,3.48,4.55,4.55,0,0,0,3.9,1.71,4.76,4.76,0,0,0,2.77-.76,4.34,4.34,0,0,0,1.62-2.22L64.91,317a2.1,2.1,0,0,1-.65,1.1,1.62,1.62,0,0,1-1.05.34,2,2,0,0,1-1.54-.66,2.7,2.7,0,0,1-.65-1.84h6.69A6.61,6.61,0,0,0,66.47,311.36Zm-5.4,2.92a2.52,2.52,0,0,1,.57-1.73,1.92,1.92,0,0,1,2.82,0,2.52,2.52,0,0,1,.6,1.76Z"></path><path class="cls-3" d="M74.41,315.25c-.1.29-.2.57-.29.86,0,.14-.13.42-.27.86l-.55-1.72-1.9-5.15H68.59l4.07,10.09h2.4l4-10.09H76.32Z"></path><polygon class="cls-3" points="79.28 320.42 81.24 320.42 84.73 306.03 82.72 306.03 79.28 320.42"></polygon><path class="cls-3" d="M91.39,315.43a16,16,0,0,0,1.75-1.78,7.07,7.07,0,0,0,1.06-1.77,4.76,4.76,0,0,0,.35-1.79,3.68,3.68,0,0,0-1.18-2.77,4.55,4.55,0,0,0-3.24-1.11,5,5,0,0,0-3.14,1,4.38,4.38,0,0,0-1.49,3.16l2.66.27a2.61,2.61,0,0,1,.57-1.67,1.78,1.78,0,0,1,1.34-.5,1.8,1.8,0,0,1,1.32.48,1.88,1.88,0,0,1,.47,1.37,2.9,2.9,0,0,1-.54,1.63,18.25,18.25,0,0,1-2.22,2.28,17.58,17.58,0,0,0-3,3.33,6.4,6.4,0,0,0-.92,2.67h9.36v-2.48H89.24a4.87,4.87,0,0,1,.55-.74C90,316.72,90.55,316.2,91.39,315.43Z"></path><path class="cls-3" d="M100.86,306.21a3.81,3.81,0,0,0-3.16,1.43q-1.36,1.73-1.37,5.65c0,2.68.42,4.53,1.25,5.57a4,4,0,0,0,3.28,1.56A3.78,3.78,0,0,0,104,319c.92-1.15,1.37-3,1.37-5.67s-.45-4.53-1.36-5.67A3.78,3.78,0,0,0,100.86,306.21Zm1.44,10.59a2.13,2.13,0,0,1-.58,1.11,1.36,1.36,0,0,1-.86.3,1.33,1.33,0,0,1-.86-.3,2.32,2.32,0,0,1-.63-1.22,23.15,23.15,0,0,1,0-6.85,2.06,2.06,0,0,1,.59-1.1,1.33,1.33,0,0,1,.87-.31,1.29,1.29,0,0,1,.85.31,2.4,2.4,0,0,1,.63,1.22,15.56,15.56,0,0,1,.24,3.37A14.64,14.64,0,0,1,102.3,316.8Z"></path><path class="cls-3" d="M113,315.43a17,17,0,0,0,1.75-1.78,7.07,7.07,0,0,0,1.06-1.77,4.75,4.75,0,0,0,.34-1.79,3.67,3.67,0,0,0-1.17-2.77,4.55,4.55,0,0,0-3.24-1.11,5,5,0,0,0-3.14,1,4.38,4.38,0,0,0-1.49,3.16l2.66.27a2.56,2.56,0,0,1,.57-1.67,1.78,1.78,0,0,1,1.34-.5,1.82,1.82,0,0,1,1.32.48,1.88,1.88,0,0,1,.47,1.37,2.92,2.92,0,0,1-.55,1.63,17.17,17.17,0,0,1-2.21,2.28,18.08,18.08,0,0,0-3,3.33,6.39,6.39,0,0,0-.91,2.67h9.35v-2.48h-5.3a4.87,4.87,0,0,1,.55-.74C111.65,316.72,112.18,316.2,113,315.43Z"></path><path class="cls-3" d="M121,308.44a7.52,7.52,0,0,1-2.27,1.29v2.42a9.12,9.12,0,0,0,3.45-2v10.06h2.67v-14h-2.17A4.84,4.84,0,0,1,121,308.44Z"></path><rect class="cls-3" x="134.45" y="313.81" width="5.24" height="2.67"></rect><polygon class="cls-3" points="146.68 320.19 149.49 320.19 149.49 314.27 155.29 314.27 155.29 311.92 149.49 311.92 149.49 308.62 156.22 308.62 156.22 306.27 146.68 306.27 146.68 320.19"></polygon><path class="cls-3" d="M165.91,311.36a4.48,4.48,0,0,0-3.55-1.48A4.32,4.32,0,0,0,159,311.3a5.56,5.56,0,0,0-1.3,3.92,5.82,5.82,0,0,0,1,3.48,4.53,4.53,0,0,0,3.89,1.71,4.74,4.74,0,0,0,2.77-.76,4.34,4.34,0,0,0,1.62-2.22l-2.65-.45a2.17,2.17,0,0,1-.65,1.1,1.64,1.64,0,0,1-1.06.34,2,2,0,0,1-1.53-.66,2.65,2.65,0,0,1-.65-1.84h6.68A6.56,6.56,0,0,0,165.91,311.36Zm-5.4,2.92a2.52,2.52,0,0,1,.57-1.73,1.86,1.86,0,0,1,1.44-.63,1.82,1.82,0,0,1,1.38.6,2.48,2.48,0,0,1,.6,1.76Z"></path><path class="cls-3" d="M173.84,315.25c-.1.29-.19.57-.28.86,0,.14-.13.42-.27.86l-.56-1.72-1.9-5.15H168l4.06,10.09h2.41l4-10.09h-2.75Z"></path><polygon class="cls-3" points="178.72 320.42 180.68 320.42 184.17 306.03 182.16 306.03 178.72 320.42"></polygon><path class="cls-3" d="M190.83,315.43a15.15,15.15,0,0,0,1.75-1.78,7.13,7.13,0,0,0,1.07-1.77,4.75,4.75,0,0,0,.34-1.79,3.68,3.68,0,0,0-1.18-2.77,4.51,4.51,0,0,0-3.23-1.11,5,5,0,0,0-3.14,1,4.34,4.34,0,0,0-1.49,3.16l2.65.27a2.56,2.56,0,0,1,.58-1.67,1.76,1.76,0,0,1,1.33-.5,1.78,1.78,0,0,1,1.32.48,1.84,1.84,0,0,1,.48,1.37,2.92,2.92,0,0,1-.55,1.63,18.68,18.68,0,0,1-2.21,2.28,18.08,18.08,0,0,0-3,3.33,6.4,6.4,0,0,0-.92,2.67H194v-2.48h-5.3a4.76,4.76,0,0,1,.54-.74C189.46,316.72,190,316.2,190.83,315.43Z"></path><path class="cls-3" d="M200.3,306.21a3.79,3.79,0,0,0-3.15,1.43c-.92,1.15-1.37,3-1.37,5.65s.41,4.53,1.25,5.57a3.93,3.93,0,0,0,3.27,1.56,3.79,3.79,0,0,0,3.15-1.42q1.37-1.72,1.37-5.67c0-2.65-.46-4.53-1.36-5.67A3.79,3.79,0,0,0,200.3,306.21Zm1.45,10.59a2.14,2.14,0,0,1-.59,1.11,1.38,1.38,0,0,1-1.72,0,2.4,2.4,0,0,1-.63-1.22,15.52,15.52,0,0,1-.24-3.36,14.84,14.84,0,0,1,.28-3.49,2.06,2.06,0,0,1,.58-1.1,1.35,1.35,0,0,1,.87-.31,1.27,1.27,0,0,1,.85.31,2.32,2.32,0,0,1,.63,1.22,15.56,15.56,0,0,1,.24,3.37A15.36,15.36,0,0,1,201.75,316.8Z"></path><path class="cls-3" d="M212.45,315.43a15.15,15.15,0,0,0,1.75-1.78,7.45,7.45,0,0,0,1.07-1.77,4.75,4.75,0,0,0,.34-1.79,3.68,3.68,0,0,0-1.18-2.77,4.53,4.53,0,0,0-3.24-1.11,5,5,0,0,0-3.13,1,4.31,4.31,0,0,0-1.49,3.16l2.65.27a2.56,2.56,0,0,1,.58-1.67,1.76,1.76,0,0,1,1.33-.5,1.78,1.78,0,0,1,1.32.48,1.84,1.84,0,0,1,.48,1.37,2.92,2.92,0,0,1-.55,1.63,18.68,18.68,0,0,1-2.21,2.28,18.08,18.08,0,0,0-3,3.33,6.4,6.4,0,0,0-.92,2.67h9.36v-2.48h-5.3a4.76,4.76,0,0,1,.54-.74C211.08,316.72,211.61,316.2,212.45,315.43Z"></path><path class="cls-3" d="M221.67,317c.23-.25.76-.77,1.6-1.54a16,16,0,0,0,1.75-1.78,7.45,7.45,0,0,0,1.07-1.77,4.75,4.75,0,0,0,.34-1.79,3.68,3.68,0,0,0-1.18-2.77,4.53,4.53,0,0,0-3.24-1.11,5,5,0,0,0-3.13,1,4.31,4.31,0,0,0-1.49,3.16l2.65.27a2.56,2.56,0,0,1,.58-1.67,1.74,1.74,0,0,1,1.33-.5,1.8,1.8,0,0,1,1.32.48,1.84,1.84,0,0,1,.47,1.37,2.9,2.9,0,0,1-.54,1.63,18.68,18.68,0,0,1-2.21,2.28,18.08,18.08,0,0,0-3,3.33,6.4,6.4,0,0,0-.92,2.67h9.36v-2.48h-5.3A4.19,4.19,0,0,1,221.67,317Z"></path><path class="cls-3" d="M134.56,316.48v-2.67h5.24v2.67Z"></path><rect class="cls-2" x="41.88" y="301.35" width="88.34" height="26.55"></rect><path class="cls-3" d="M47.23,320.19V306.27h9.55v2.35H50.05v3.3h5.8v2.35h-5.8v5.92Z"></path><path class="cls-3" d="M64.91,317l2.66.45A4.34,4.34,0,0,1,66,319.65a4.76,4.76,0,0,1-2.77.76,4.55,4.55,0,0,1-3.9-1.71,5.89,5.89,0,0,1-1-3.48,5.56,5.56,0,0,1,1.31-3.92,4.31,4.31,0,0,1,3.31-1.42,4.5,4.5,0,0,1,3.56,1.48,6.61,6.61,0,0,1,1.24,4.56H61a2.7,2.7,0,0,0,.65,1.84,2,2,0,0,0,1.54.66,1.62,1.62,0,0,0,1.05-.34A2.1,2.1,0,0,0,64.91,317Zm.15-2.7a2.52,2.52,0,0,0-.6-1.76,1.92,1.92,0,0,0-2.82,0,2.52,2.52,0,0,0-.57,1.73Z"></path><path class="cls-3" d="M72.65,320.19,68.59,310.1h2.8l1.9,5.15.55,1.72c.14-.44.23-.72.27-.86.09-.29.19-.57.29-.86l1.91-5.15h2.75l-4,10.09Z"></path><path class="cls-3" d="M79.28,320.42,82.72,306h2l-3.49,14.39Z"></path><path class="cls-3" d="M94.55,317.71v2.48H85.19a6.4,6.4,0,0,1,.92-2.67,17.58,17.58,0,0,1,3-3.33,18.25,18.25,0,0,0,2.22-2.28,2.9,2.9,0,0,0,.54-1.63,1.88,1.88,0,0,0-.47-1.37,1.8,1.8,0,0,0-1.32-.48,1.78,1.78,0,0,0-1.34.5,2.61,2.61,0,0,0-.57,1.67l-2.66-.27A4.38,4.38,0,0,1,87,307.17a5,5,0,0,1,3.14-1,4.55,4.55,0,0,1,3.24,1.11,3.68,3.68,0,0,1,1.18,2.77,4.76,4.76,0,0,1-.35,1.79,7.07,7.07,0,0,1-1.06,1.77,16,16,0,0,1-1.75,1.78c-.84.77-1.37,1.29-1.6,1.54a4.87,4.87,0,0,0-.55.74Z"></path><path class="cls-3" d="M100.86,306.21a3.78,3.78,0,0,1,3.15,1.45c.91,1.14,1.36,3,1.36,5.67s-.45,4.52-1.37,5.67a3.78,3.78,0,0,1-3.14,1.42,4,4,0,0,1-3.28-1.56c-.83-1-1.25-2.89-1.25-5.57s.46-4.5,1.37-5.65A3.81,3.81,0,0,1,100.86,306.21Zm0,2.22a1.33,1.33,0,0,0-.87.31,2.06,2.06,0,0,0-.59,1.1,23.15,23.15,0,0,0,0,6.85,2.32,2.32,0,0,0,.63,1.22,1.33,1.33,0,0,0,.86.3,1.36,1.36,0,0,0,.86-.3,2.13,2.13,0,0,0,.58-1.11,14.64,14.64,0,0,0,.28-3.47,15.56,15.56,0,0,0-.24-3.37,2.4,2.4,0,0,0-.63-1.22A1.29,1.29,0,0,0,100.86,308.43Z"></path><path class="cls-3" d="M116.17,317.71v2.48h-9.36a6.53,6.53,0,0,1,.91-2.67,18.08,18.08,0,0,1,3-3.33,18.25,18.25,0,0,0,2.22-2.28,2.9,2.9,0,0,0,.54-1.63,1.88,1.88,0,0,0-.47-1.37,1.8,1.8,0,0,0-1.32-.48,1.78,1.78,0,0,0-1.34.5,2.56,2.56,0,0,0-.57,1.67l-2.66-.27a4.38,4.38,0,0,1,1.49-3.16,5,5,0,0,1,3.14-1,4.55,4.55,0,0,1,3.24,1.11,3.68,3.68,0,0,1,1.18,2.77,4.76,4.76,0,0,1-.35,1.79,7.07,7.07,0,0,1-1.06,1.77,17,17,0,0,1-1.75,1.78c-.84.77-1.37,1.29-1.6,1.54a4.87,4.87,0,0,0-.55.74Z"></path><path class="cls-3" d="M127,317.71v2.48h-9.35a6.39,6.39,0,0,1,.91-2.67,18.08,18.08,0,0,1,3-3.33,17.17,17.17,0,0,0,2.21-2.28,2.92,2.92,0,0,0,.55-1.63,1.88,1.88,0,0,0-.47-1.37,1.82,1.82,0,0,0-1.33-.48,1.77,1.77,0,0,0-1.33.5,2.56,2.56,0,0,0-.57,1.67l-2.66-.27a4.38,4.38,0,0,1,1.49-3.16,5,5,0,0,1,3.14-1,4.55,4.55,0,0,1,3.24,1.11,3.67,3.67,0,0,1,1.17,2.77,4.75,4.75,0,0,1-.34,1.79,7.07,7.07,0,0,1-1.06,1.77,17,17,0,0,1-1.75,1.78c-.84.77-1.37,1.29-1.6,1.54a4.87,4.87,0,0,0-.55.74Z"></path><rect class="cls-2" x="217.07" y="305.13" width="11.35" height="18.62"></rect><path class="cls-3" d="M219.82,315.64a2.61,2.61,0,0,0,.63,1.75,2.24,2.24,0,0,0,1.57.49,2.46,2.46,0,0,0,1.51-.43,1.66,1.66,0,0,0,.59-1.43,1.82,1.82,0,0,0-.49-1.41,2.45,2.45,0,0,0-1.63-.43h-1.34v-2.36h1.5a1.51,1.51,0,0,0,1.71-1.71,2.06,2.06,0,0,0-.1-.62,1.31,1.31,0,0,0-.31-.52,1.45,1.45,0,0,0-.55-.35,2.68,2.68,0,0,0-.87-.12,2.37,2.37,0,0,0-1.47.42,2.5,2.5,0,0,0-.81,1.5l-2.57-.35a6.26,6.26,0,0,1,.51-1.53,3.62,3.62,0,0,1,.92-1.23,4,4,0,0,1,1.43-.81,6.27,6.27,0,0,1,2-.29,6.48,6.48,0,0,1,2,.28,4.31,4.31,0,0,1,1.41.76,2.92,2.92,0,0,1,.84,1.14,3.51,3.51,0,0,1,.28,1.41,3.43,3.43,0,0,1-.43,1.74,3.37,3.37,0,0,1-1.35,1.26,3.16,3.16,0,0,1,1.62,1.31,3.68,3.68,0,0,1,.47,1.82,5.26,5.26,0,0,1-.27,1.72,3.28,3.28,0,0,1-.85,1.35,4.1,4.1,0,0,1-1.49.87,6.58,6.58,0,0,1-2.17.32,6.1,6.1,0,0,1-2.39-.41,4.5,4.5,0,0,1-1.53-1.07,4,4,0,0,1-.82-1.47,6.59,6.59,0,0,1-.29-1.6Z"></path></svg>