<svg xmlns="http://www.w3.org/2000/svg" id="Layer_1" data-name="Layer 1" viewBox="0 0 594.89 202.7"><defs><style>.cls-1{fill:#060807;}.cls-2{fill:#ef5428;}.cls-3{fill:#2d9ed8;}.cls-4{fill:#82bc41;}.cls-5{fill:#fbb515;}.cls-6{fill:#747476;}.cls-7{fill:#856928;}</style></defs><path class="cls-1" d="M59.5,52.73v58.34H53V62.24c-1.19,2.82-2.58,6.27-4.09,9.68C43.28,84.55,37.65,97.16,32.1,109.81a2,2,0,0,1-2.21,1.43c-1.08,0-1.85-.07-2.42-1.34C21.05,95.42,14.52,81,8.07,66.52c-.66-1.49-1-3.12-1.68-4.65V111.1H0V52.74c2.78,0,5.66-.1,8.52.09.51,0,1.05,1.23,1.38,2q6.51,14.7,13,29.44c2.32,5.3,4.6,10.62,6.92,16,1.28-3,2.53-6,3.88-9.06Q42,72.59,50.38,54.06c.24-.53.84-1.25,1.3-1.27C54.26,52.67,56.84,52.73,59.5,52.73Z"></path><path class="cls-1" d="M343.54,52.46c7.42.28,14.74.1,21.95.94,7.48.88,12.44,6.12,13.46,13.31,1.13,8-1.29,14.58-8.08,18.89a22.26,22.26,0,0,1-12.69,3.46c-2.1,0-4.21.06-6.31,0-1.32-.06-1.69.42-1.68,1.7.06,6.06,0,12.12,0,18.17v2.17h-6.68Zm6.78,30.22a105.07,105.07,0,0,0,10.52-.06C368,81.9,372.2,77,372,70.29c-.15-4.49-1.61-8.29-6.06-10.14-5-2.09-10.3-1.2-15.6-1.33Z"></path><path class="cls-1" d="M565.13,92H535.82c-.32,8.37,5.24,15.94,16.38,14.26a22.12,22.12,0,0,0,10-4.35c0,2.07,0,3.88,0,5.69a1.52,1.52,0,0,1-.67,1c-6.51,4.38-19.2,5.67-26.12-.49a19.83,19.83,0,0,1-6.4-13c-1-7.77.16-15,5.66-21.09,6.67-7.33,18.92-7.79,25.43-1,3.53,3.69,4.66,8.33,5,13.22C565.23,88.06,565.13,89.86,565.13,92Zm-6.84-5.79c0-4.34-1.07-8.11-4.67-10.5a10.13,10.13,0,0,0-11.55,0c-3.75,2.34-5.63,6-6.2,10.45Z"></path><path class="cls-1" d="M190,89.9c.19,6.46-1.68,12.21-6.34,16.8a18.49,18.49,0,0,1-13,5.39c-3.94.07-7.76-.22-11.32-2.14a18.34,18.34,0,0,1-9.15-11c-2.28-7.35-2-14.61,2-21.42a18.47,18.47,0,0,1,13.55-9c5.23-.84,10.38-.55,15.06,2.33,6,3.73,8.52,9.5,9.2,16.27C190.08,88,190,89,190,89.9Zm-6.92,1c0-5.2-.48-6.74-1.85-10C177.55,72.14,164.16,71.94,159,79c-4.29,5.84-4.43,17.17.34,23,5.08,6.18,17.73,6.42,21.76-2A18,18,0,0,0,183.08,90.86Z"></path><path class="cls-1" d="M266.63,89.46c.23,7.4-1.81,13.52-7.17,18-6.76,5.65-14.64,6.22-22.46,2.86s-11.12-10.07-11.41-18.4c-.15-4.57.36-9,2.53-13.1,3.36-6.4,8.78-9.73,15.78-10.51,5.35-.6,10.54.13,15,3.51,5.1,3.88,7.3,9.31,7.75,15.54C266.68,88.21,266.63,89.08,266.63,89.46Zm-34.23.75a17.33,17.33,0,0,0,3.36,11.32c5,6.76,17.8,6.77,21.89-1.41a23.12,23.12,0,0,0,1.8-14.6c-1.8-10.72-13.35-15.32-21.74-8.59C233.55,80.28,232.44,85.1,232.4,90.21Z"></path><path class="cls-1" d="M407.16,84.62c.54-6.06-2.5-10.9-9-10.53a21.92,21.92,0,0,0-11.26,3.77l-1.71,1.2c0-2.15-.06-4,.05-5.91a1.91,1.91,0,0,1,.93-1.39c6-2.94,12.33-4.46,19-2.59,5.79,1.62,8.11,6,8.79,11.59a39.75,39.75,0,0,1,.2,4.63c0,7.85,0,15.7,0,23.55v2.14h-6.68v-6.39c-.58.7-.87,1-1.12,1.36a15.33,15.33,0,0,1-19.58,4.28c-4.78-2.68-6.81-8.1-5.24-14.13s6.11-8.4,11.62-9.44c4.24-.8,8.54-1.27,12.82-1.89C406.36,84.81,406.77,84.7,407.16,84.62Zm.09,5.46c-3.67.5-7.18.9-10.64,1.5a19.55,19.55,0,0,0-5.11,1.51c-4.6,2.19-5,9-.75,11.83s10.18,1.7,13.59-2.25C407.5,99,407.61,94.71,407.25,90.08Z"></path><path class="cls-1" d="M493.51,111.11h-6.59V69.54h6.56v5.54c1.41-1.18,3-2.65,4.75-4,5.33-4,13.57-3.81,18.4.49a14.06,14.06,0,0,1,4.64,10.21c.28,9.69.1,19.39.1,29.24h-6.62v-2c0-7.11,0-14.22,0-21.33a34.16,34.16,0,0,0-.58-5.88c-.63-3.41-2.3-6.22-5.81-7.26A10.36,10.36,0,0,0,497.65,77a12.79,12.79,0,0,0-4.13,9.58C493.51,94.68,493.51,102.77,493.51,111.11Z"></path><path class="cls-1" d="M292.24,69.42V75h-9.67v36.15h-6.72v-2c0-10.76,0-21.52,0-32.28,0-1.45-.37-2-1.86-1.9-1.66.12-3.33,0-5.12,0v-5.6h6.94c0-2.48,0-4.75,0-7C275.73,53.24,283.12,47,292,48.61c1.43.25,2.21.77,2,2.4a35.61,35.61,0,0,0,0,4c-1.14-.3-2.11-.64-3.11-.8-4.26-.69-7.41,1.42-8,5.68-.42,3-.35,6.13-.51,9.51h9.84Z"></path><path class="cls-1" d="M219.07,77a16.81,16.81,0,0,0-10.23-2.87c-4,.19-6.69,2.76-6.54,6.3a5.49,5.49,0,0,0,3.18,4.87c2.79,1.44,5.72,2.62,8.45,4.15,2.48,1.38,4.84,3,6.15,5.69a11.55,11.55,0,0,1-3.23,13.7c-6.12,4.72-15,4-20.61,1.28-.37-.18-.84-.66-.85-1-.08-2.07,0-4.15,0-6.54,3.29,2.44,6.6,3.89,10.35,3.93a20.59,20.59,0,0,0,4.74-.6,4.64,4.64,0,0,0,3.67-4.36,4.93,4.93,0,0,0-2.38-5.24c-2.46-1.4-5-2.7-7.5-4-2.84-1.42-5.65-2.94-7.27-5.79-3.52-6.18-.8-13.75,5.87-16.65C207.89,67.64,213,68,218,70A1.84,1.84,0,0,1,219,71.2C219.14,73,219.07,74.86,219.07,77Z"></path><path class="cls-1" d="M460.23,75h-7.09V69.36h7V59.23l6.7-2.21V69.29h10.48V75c-2.94,0-5.83.07-8.71,0-1.39,0-1.8.4-1.79,1.78.07,7.54,0,15.08.05,22.62.05,5.82,3.86,8.51,9,6.5.44-.18.9-.34,1.45-.54v5.55c-4.27,1.76-8.57,2-12.63-.37-3.75-2.17-4.45-6-4.5-10-.09-7.72,0-15.44,0-23.17Z"></path><path class="cls-1" d="M118.2,76.71c-2.65-.86-5.2-2.09-7.87-2.49-9.45-1.39-15.29,5.23-16.45,13a18.7,18.7,0,0,0,1.31,11.24,13.57,13.57,0,0,0,16.4,7.38,65.34,65.34,0,0,0,6.55-2.6c0,1.79,0,3.71,0,5.63,0,.33-.61.74-1,.94-11.87,6-29,1-30.2-17a23.84,23.84,0,0,1,3.61-15.21c4.73-7.19,11.65-9.8,20-9.21a41.13,41.13,0,0,1,6.5,1.38,1.55,1.55,0,0,1,1.31,1.86C118.1,73.43,118.2,75.2,118.2,76.71Z"></path><path class="cls-1" d="M293.94,75V69.3h7.14c0-3,.07-5.84,0-8.66a1.64,1.64,0,0,1,1.44-1.93c1.72-.45,3.4-1.05,5.25-1.64V69.3h10.44v5.63h-10.4v2.21c0,7.23,0,14.47,0,21.7,0,6.58,3.64,9.11,9.78,6.67.16-.06.35-.07.71-.15,0,1.6.08,3.13-.05,4.65a1.84,1.84,0,0,1-1.08,1.21,13.8,13.8,0,0,1-10,0c-4.61-1.74-5.94-5.74-6-10.15-.14-8-.1-15.95,0-23.92,0-1.78-.47-2.43-2.26-2.26C297.28,75.06,295.66,75,293.94,75Z"></path><path class="cls-2" d="M402,157.13v21.38H380.81V157.13Z"></path><path class="cls-3" d="M402,181.33V202.7H380.81V181.33Z"></path><path class="cls-4" d="M426.18,157.13v21.38H405V157.13Z"></path><path class="cls-5" d="M426.18,181.33V202.7H405V181.33Z"></path><path class="cls-6" d="M464.81,171.91c-1.55,3.82-3,7.31-4.39,10.81-1.24,3.08-2.53,6.14-3.67,9.25-.38,1-.77,1.53-1.93,1.54a1.92,1.92,0,0,1-2-1.5c-2.54-6.33-5.14-12.64-7.72-18.95a.91.91,0,0,0-.65-.58c0,.7-.1,1.39-.1,2.08,0,5.69-.07,11.38,0,17.07,0,1.74-.76,1.86-2.13,1.87s-2.12-.19-2.1-1.89c.09-7.79.07-15.59,0-23.38,0-1.41.32-2,1.86-1.95,4.57,0,4.6,0,6.3,4.13,2.18,5.34,4.29,10.71,6.63,16.56.86-2,1.61-3.65,2.31-5.33,1.93-4.65,3.89-9.3,5.74-14a1.86,1.86,0,0,1,2.05-1.35c4.55,0,4.55-.07,4.55,4.41,0,6.92-.08,13.85.05,20.78,0,2-.9,2-2.36,2s-2.34-.24-2.29-2.1c.16-6.18.14-12.36.17-18.54A4.24,4.24,0,0,0,464.81,171.91Z"></path><path class="cls-1" d="M572.79,69.44h6.71v8.22c1-1.73,1.7-3.15,2.6-4.41,2.71-3.8,6.46-5.12,11-4.42,1.11.17,1.63.52,1.57,1.74-.1,1.76,0,3.53,0,5.5-2.62-1.2-5-1.65-7.6-.77a9.15,9.15,0,0,0-6,6.36,33.34,33.34,0,0,0-1.42,8.27c-.2,6.85-.07,13.71-.08,20.57a3.59,3.59,0,0,1-.19.7c-1.88,0-3.79.1-5.67-.08-.36,0-.89-1.13-.9-1.74-.06-6.37,0-12.73,0-19.09V69.44Z"></path><path class="cls-1" d="M431.21,111.17h-6.57V69.57h6.47v8.07c1.07-1.8,1.76-3.18,2.65-4.43,2.77-3.88,6.59-5.12,11.22-4.34,1.1.19,1.42.65,1.37,1.71-.07,1.77,0,3.53,0,5.35-5.91-1.79-9.78-1-12.1,2.93a18.09,18.09,0,0,0-2.63,7c-.47,4.77-.32,9.61-.38,14.42C431.17,103.86,431.21,107.43,431.21,111.17Z"></path><path class="cls-1" d="M132.77,111.13h-6.49V69.52h6.52v7.7a64.1,64.1,0,0,1,4.25-5.68c2.63-2.85,6.09-3.25,9.74-2.66a1.31,1.31,0,0,1,1.3,1.61c-.11,1.78,0,3.57,0,5.47a35.08,35.08,0,0,0-3.62-1c-4-.63-7.79,1.64-9.65,5.67a21.74,21.74,0,0,0-1.94,9.51c.09,6.61,0,13.22,0,19.83C132.88,110.32,132.81,110.67,132.77,111.13Z"></path><path class="cls-6" d="M578.83,177.52c0,4.84-.06,9.35,0,13.85,0,1.57-.34,2.17-2,2.16s-2.26-.44-2.21-2.18c.13-3.83,0-7.67.06-11.5,0-1.51-.22-2.59-2.11-2.35-1.17.15-1.3-.64-1.25-1.53s-.25-2,1.13-1.82c2.13.27,2.36-.89,2.21-2.52-.37-4.12,1.94-6.35,4.87-7a14.1,14.1,0,0,1,3.32-.17c1.81,0,1.09,1.44,1.17,2.34.09,1.12-.55,1.05-1.45.88-2.14-.4-3.58.84-3.72,3,0,.37,0,.75,0,1.11-.27,1.76.42,2.55,2.23,2.28a8.37,8.37,0,0,1,1.12,0c3.62,0,3.59,0,4-3.49a1.81,1.81,0,0,1,.8-1.26,27.9,27.9,0,0,1,3.33-1.07v5.85c1.07,0,2,.07,2.87,0,1.35-.13,1.68.49,1.68,1.73s-.36,1.78-1.69,1.74c-3.21-.08-2.81-.15-2.83,2.94,0,1.8,0,3.59,0,5.38,0,4.26.33,4.6,4.52,4.55-.28,1.19.75,2.79-1.31,3.33-2.72.71-5.91-.36-6.78-2.46a8,8,0,0,1-.58-2.86c-.08-3-.09-6.06,0-9.08,0-1.48-.5-2-1.94-1.88C582.54,177.6,580.81,177.52,578.83,177.52Z"></path><path class="cls-1" d="M78.46,69.56V111.1H72V69.56Z"></path><path class="cls-7" d="M14.08,18.41V15.6H23.5c0,4.3,0,8.42,0,12.53,0,.4-.55.95-1,1.14-6,2.74-12.61,3.07-18-1.42a12,12,0,0,1-4-7.1C-.76,14.74.32,9.39,5,5.08a12.58,12.58,0,0,1,8.84-3.6A34.69,34.69,0,0,1,20.4,2c2.94.59,2.91.75,2.59,3.66a77.09,77.09,0,0,0-7.82-1.38c-6.33-.47-11,4-11.7,10.72A12.46,12.46,0,0,0,7,25.65c3.21,3.22,9.19,3.1,12.31,1.67a2.07,2.07,0,0,0,1-1.5c.12-2,0-4.08.06-6.12,0-1-.36-1.33-1.31-1.3C17.46,18.43,15.86,18.41,14.08,18.41Z"></path><path class="cls-7" d="M81.65,12.53V2.63c0-2.83,0-2.87,3-2.41V30.33c-2.89.65-3,.55-3-2.74-.68.61-1.23,1.13-1.81,1.6a7.84,7.84,0,0,1-8.23,1.48c-3.42-1.3-5.11-4-5.56-7.44a14.75,14.75,0,0,1,1.08-8.5C69.8,9.34,76.88,7.46,81.65,12.53Zm.45,7.79-.45-.14a7.93,7.93,0,0,1,0-1.29A6,6,0,0,0,77,12.2c-2.61-.64-5.52.93-6.88,3.69a11.18,11.18,0,0,0-.5,8.06,5.77,5.77,0,0,0,4.77,4.54,5.59,5.59,0,0,0,6-2.73C81.31,24.15,81.55,22.15,82.1,20.32Z"></path><path class="cls-6" d="M550.5,183.82A9.48,9.48,0,0,1,560,173.54c7.11-.18,10.3,4.38,10.27,9.91,0,6.3-3.95,10.4-10,10.39S550.5,190,550.5,183.82Zm15.3-.14h0c0-.56,0-1.12,0-1.67a5.53,5.53,0,0,0-3.67-4.85,5.22,5.22,0,0,0-6,2,8.16,8.16,0,0,0-1,6.87,5.41,5.41,0,0,0,5.55,4.41,5.28,5.28,0,0,0,5.07-4.51A14.83,14.83,0,0,0,565.8,183.68Z"></path><path class="cls-6" d="M532.43,183.4c.59,7.08-4.84,10.48-9.78,10.4-6.5-.11-9.92-4-9.91-10.16s3.45-9.9,9.62-10.16C528.69,173.23,532.83,177.1,532.43,183.4Zm-4.2.38a9.13,9.13,0,0,0,0-1.48c-.4-2.27-1.19-4.3-3.63-5.09A5.31,5.31,0,0,0,518.5,179c-1.78,2.13-1.85,6.47-.13,9a5,5,0,0,0,5.77,2.12C526.88,189.41,528.24,187.3,528.23,183.78Z"></path><path class="cls-7" d="M29.61,20.38c.11-4.2,1.48-7.83,5.46-9.71a10.44,10.44,0,0,1,11.17.86,9.12,9.12,0,0,1,3.46,6.3c.75,4.81-.59,10.24-5.47,12.53a10.09,10.09,0,0,1-14.62-8.69C29.59,21.24,29.61,20.81,29.61,20.38Zm17.25-.12-.17,0c0-.49,0-1,0-1.48-.47-5.56-6-8.46-10.61-5.49-3.32,2.12-3.63,5.55-3.22,9a6.8,6.8,0,0,0,6.39,6.27c3.77.24,6-1.36,7.1-5.25A27.9,27.9,0,0,0,46.86,20.26Z"></path><path class="cls-6" d="M535.83,189.36c1.39.43,2.76.91,4.16,1.26,1.72.41,3.42-.3,3.8-1.47.42-1.32-.37-2.55-2.18-3.37-.79-.35-1.59-.66-2.36-1-3-1.51-4.16-3.63-3.55-6.53.49-2.35,3.09-4.33,5.93-4.48.55,0,1.11,0,1.67,0,3.64.08,3.84.31,3.5,4.1a16.77,16.77,0,0,0-3.3-.87,5.42,5.42,0,0,0-3,.61,1.71,1.71,0,0,0-.31,2.94,12.65,12.65,0,0,0,3,1.76c2.15,1.07,4.51,1.92,4.8,4.81.46,4.48-2.43,6.18-6.11,6.76a8,8,0,0,1-2.59,0C535.4,193.14,535.34,193.43,535.83,189.36Z"></path><path class="cls-6" d="M497,178.27c-3.73-1.69-6.85-1.44-8.73.61s-2.25,6.44-.78,8.7c2.5,3.85,5.92,3.22,9.44,1.68.56,3.42.47,3.55-2.62,4.28-3.8.91-7.29.08-9.76-2.85-2.93-3.45-3.06-7.55-1.19-11.63,1.66-3.64,4.72-5.19,8.59-5.35.37,0,.75,0,1.12,0C497,173.74,497.41,174.21,497,178.27Z"></path><path class="cls-6" d="M505.52,176.87a21,21,0,0,1,2.89-2.52c2.73-1.58,3.95-.83,3.93,2.27,0,.36,0,.72,0,1-.21.1-.34.23-.41.2-4.64-1.49-6.37,1.85-6.58,5.47-.16,2.84-.12,5.69,0,8.52.07,1.77-1,1.62-2.15,1.64s-2.13,0-2.1-1.69c.1-5.25.06-10.5,0-15.74,0-1.17,0-2.1,1.62-2,1.31.12,2.94-.39,2.61,1.91A3.24,3.24,0,0,0,505.52,176.87Z"></path><path class="cls-7" d="M56.45.11h3V30.49h-3Z"></path><path class="cls-6" d="M478.56,183.83c0,2.65-.09,5.31,0,7.95.07,1.7-.84,1.75-2.08,1.7s-2.2.2-2.17-1.6c.09-5.42.08-10.84,0-16.26,0-1.88,1.21-1.44,2.25-1.51s2,0,2,1.59C478.49,178.41,478.56,181.12,478.56,183.83Z"></path><path class="cls-1" d="M75.29,50a4.29,4.29,0,0,1,4.41,4.44A4.41,4.41,0,1,1,75.29,50Z"></path><path class="cls-6" d="M474,168.42a2.25,2.25,0,0,1,2.32-2.5,2.63,2.63,0,0,1,2.95,2.36,2.64,2.64,0,0,1-5.27.14Z"></path></svg>