<svg xmlns="http://www.w3.org/2000/svg" width="10" height="20" viewBox="0 0 10 20" fill="none">
  <g clip-path="url(#clip0_7990_4684)">
    <path d="M6.28598 6.5522V4.8292C6.28212 4.62857 6.29415 4.42794 6.32198 4.2292C6.34894 4.08022 6.40465 3.93791 6.48598 3.8102C6.58145 3.66522 6.72956 3.56302 6.89899 3.5252C7.14747 3.46598 7.40262 3.43942 7.65797 3.4462H9.38098V-0.000795696H6.62598C6.00599 -0.0605591 5.38035 0.0095001 4.78894 0.204916C4.19753 0.400333 3.65331 0.716819 3.19098 1.1342C2.43225 2.07654 2.05916 3.27157 2.14698 4.4782V6.5522H0.0839844V9.9992H2.14698V19.9992H6.28598V9.9992H9.04099L9.40498 6.5522H6.28598Z" fill="#2943BD"/>
  </g>
  <defs>
    <clipPath id="clip0_7990_4684">
      <rect width="9.321" height="20" fill="white" transform="translate(0.0839844)"/>
    </clipPath>
  </defs>
</svg>