<svg width="71" height="73" viewBox="0 0 71 73" fill="none" xmlns="http://www.w3.org/2000/svg">
<g clip-path="url(#clip0_6409_57641)">
<path d="M25.5418 21.5532V19.8302C25.538 19.6295 25.55 19.4289 25.5778 19.2302C25.6048 19.0812 25.6605 18.9389 25.7418 18.8112C25.8373 18.6662 25.9854 18.564 26.1548 18.5262C26.4033 18.467 26.6585 18.4404 26.9138 18.4472H28.6368V15.0002H25.8818C25.2618 14.9404 24.6362 15.0105 24.0448 15.2059C23.4534 15.4013 22.9092 15.7178 22.4468 16.1352C21.6881 17.0775 21.315 18.2726 21.4028 19.4792V21.5532H19.3398V25.0002H21.4028V35.0002H25.5418V25.0002H28.2968L28.6608 21.5532H25.5418Z" fill="#2943BD"/>
</g>
<defs>
<clipPath id="clip0_6409_57641">
<rect width="9.321" height="20" fill="white" transform="translate(19.3398 15)"/>
</clipPath>
</defs>
</svg>
