<svg width="72" height="73" viewBox="0 0 72 73" fill="none" xmlns="http://www.w3.org/2000/svg">
<g clip-path="url(#clip0_6409_57648)">
<path d="M28.9355 15.108H19.9625C18.5061 15.1008 17.1062 15.6716 16.0701 16.6952C15.034 17.7188 14.4461 19.1115 14.4355 20.568V29.432C14.4461 30.8884 15.034 32.2812 16.0701 33.3048C17.1062 34.3284 18.5061 34.8992 19.9625 34.892H28.9355C30.392 34.8992 31.7918 34.3284 32.828 33.3048C33.8641 32.2812 34.452 30.8884 34.4625 29.432V20.568C34.452 19.1115 33.8641 17.7188 32.828 16.6952C31.7918 15.6716 30.392 15.1008 28.9355 15.108ZM32.6855 29.432C32.6771 30.4193 32.2777 31.3631 31.5748 32.0566C30.872 32.7501 29.9229 33.1368 28.9355 33.132H19.9625C18.9751 33.137 18.0259 32.7504 17.323 32.0569C16.62 31.3633 16.2207 30.4194 16.2125 29.432V20.568C16.221 19.5806 16.6204 18.6369 17.3233 17.9434C18.0261 17.2499 18.9752 16.8632 19.9625 16.868H28.9355C29.9229 16.8632 30.872 17.2499 31.5748 17.9434C32.2777 18.6369 32.6771 19.5806 32.6855 20.568V29.432Z" fill="#2943BD"/>
<path d="M24.4503 19.4607C23.36 19.4845 22.301 19.8296 21.406 20.4527C20.5109 21.0758 19.8197 21.9492 19.4189 22.9634C19.0182 23.9776 18.9256 25.0876 19.1529 26.1541C19.3802 27.2207 19.9173 28.1965 20.6968 28.9592C21.4763 29.7219 22.4635 30.2375 23.5348 30.4416C24.6061 30.6456 25.7138 30.5289 26.719 30.1061C27.7243 29.6833 28.5824 28.9733 29.1858 28.0649C29.7893 27.1565 30.1112 26.0903 30.1113 24.9997C30.0933 23.5151 29.4872 22.0981 28.426 21.0598C27.3647 20.0214 25.9349 19.4463 24.4503 19.4607ZM24.4503 28.6307C23.7354 28.6152 23.0411 28.389 22.4543 27.9805C21.8675 27.572 21.4143 26.9995 21.1515 26.3345C20.8887 25.6696 20.828 24.9419 20.977 24.2426C21.126 23.5433 21.4781 22.9036 21.9892 22.4035C22.5002 21.9035 23.1475 21.5654 23.8499 21.4317C24.5522 21.2979 25.2784 21.3745 25.9375 21.6517C26.5965 21.9289 27.1591 22.3945 27.5547 22.9901C27.9503 23.5856 28.1613 24.2847 28.1613 24.9997C28.1494 25.9729 27.752 26.9017 27.0564 27.5824C26.3607 28.263 25.4235 28.6401 24.4503 28.6307Z" fill="#2943BD"/>
<path d="M29.909 18.459C29.6388 18.4593 29.3771 18.5532 29.1684 18.7248C28.9597 18.8964 28.8169 19.135 28.7644 19.4C28.712 19.6651 28.753 19.9401 28.8805 20.1783C29.008 20.4165 29.2142 20.6031 29.4638 20.7063C29.7135 20.8096 29.9912 20.8231 30.2498 20.7445C30.5083 20.666 30.7315 20.5003 30.8816 20.2756C31.0316 20.0509 31.0991 19.7811 31.0725 19.5122C31.046 19.2434 30.9271 18.992 30.736 18.801C30.5164 18.5822 30.219 18.4592 29.909 18.459Z" fill="#2943BD"/>
</g>
<defs>
<clipPath id="clip0_6409_57648">
<rect width="20.027" height="19.784" fill="white" transform="translate(14.4355 15.1079)"/>
</clipPath>
</defs>
</svg>
