<svg xmlns="http://www.w3.org/2000/svg" width="21" height="20" viewBox="0 0 21 20" fill="none">
  <g clip-path="url(#clip0_7990_4691)">
    <path d="M15.2305 0.107489H6.25747C4.80101 0.100301 3.40117 0.671107 2.36502 1.69469C1.32888 2.71828 0.741044 4.11105 0.730469 5.56749L0.730469 14.4315C0.741044 15.8879 1.32888 17.2807 2.36502 18.3043C3.40117 19.3279 4.80101 19.8987 6.25747 19.8915H15.2305C16.6869 19.8987 18.0868 19.3279 19.1229 18.3043C20.1591 17.2807 20.7469 15.8879 20.7575 14.4315V5.56749C20.7469 4.11105 20.1591 2.71828 19.1229 1.69469C18.0868 0.671107 16.6869 0.100301 15.2305 0.107489ZM18.9805 14.4315C18.972 15.4188 18.5726 16.3626 17.8698 17.0561C17.1669 17.7496 16.2179 18.1363 15.2305 18.1315H6.25747C5.27001 18.1366 4.32081 17.7499 3.61789 17.0564C2.91497 16.3629 2.51566 15.4189 2.50747 14.4315V5.56749C2.51592 4.58013 2.91532 3.63636 3.61818 2.94287C4.32104 2.24938 5.27009 1.86269 6.25747 1.86749H15.2305C16.2179 1.86269 17.1669 2.24938 17.8698 2.94287C18.5726 3.63636 18.972 4.58013 18.9805 5.56749V14.4315Z" fill="#2943BD"/>
    <path d="M10.7442 4.4612C9.65392 4.48502 8.59491 4.83009 7.6999 5.45318C6.80489 6.07626 6.11368 6.94964 5.71289 7.96387C5.31211 8.97809 5.21957 10.088 5.44688 11.1546C5.67419 12.2212 6.21124 13.197 6.99073 13.9597C7.77021 14.7224 8.75745 15.238 9.82874 15.4421C10.9 15.6461 12.0077 15.5294 13.013 15.1066C14.0182 14.6838 14.8763 13.9738 15.4798 13.0654C16.0832 12.157 16.4051 11.0907 16.4052 10.0002C16.3873 8.51555 15.7812 7.09862 14.7199 6.06024C13.6587 5.02185 12.2289 4.44679 10.7442 4.4612ZM10.7442 13.6312C10.0294 13.6156 9.33506 13.3895 8.74824 12.981C8.16143 12.5725 7.70822 11.9999 7.44542 11.335C7.18263 10.6701 7.12194 9.94236 7.27096 9.24308C7.41998 8.5438 7.77207 7.90405 8.28312 7.40402C8.79417 6.90399 9.44143 6.56591 10.1438 6.43217C10.8462 6.29842 11.5724 6.37496 12.2314 6.65218C12.8905 6.9294 13.4531 7.39497 13.8486 7.99055C14.2442 8.58613 14.4552 9.28522 14.4552 10.0002C14.4433 10.9734 14.046 11.9022 13.3503 12.5829C12.6547 13.2635 11.7174 13.6405 10.7442 13.6312Z" fill="#2943BD"/>
    <path d="M16.2049 3.45898C15.9347 3.45926 15.673 3.5532 15.4643 3.72478C15.2556 3.89637 15.1128 4.13501 15.0603 4.40003C15.0079 4.66506 15.0489 4.94009 15.1764 5.17828C15.3039 5.41647 15.5101 5.60308 15.7597 5.70633C16.0094 5.80958 16.2871 5.82308 16.5457 5.74454C16.8042 5.66599 17.0274 5.50025 17.1775 5.27555C17.3275 5.05086 17.395 4.7811 17.3684 4.51223C17.3419 4.24336 17.223 3.99201 17.0319 3.80099C16.8123 3.58217 16.5149 3.45921 16.2049 3.45898Z" fill="#2943BD"/>
  </g>
  <defs>
    <clipPath id="clip0_7990_4691">
      <rect width="20.027" height="19.784" fill="white" transform="translate(0.730469 0.107422)"/>
    </clipPath>
  </defs>
</svg>