<svg width="49" height="48" viewBox="0 0 49 48" fill="none" xmlns="http://www.w3.org/2000/svg">
<g clip-path="url(#clip0_6409_57658)">
<path d="M19.459 20.6567H15.166V33.5497H19.459V20.6567Z" fill="#2943BD"/>
<path d="M33.5491 21.8348C33.0949 21.3446 32.5399 20.9586 31.9222 20.7036C31.3045 20.4486 30.6388 20.3307 29.9711 20.3578C29.4673 20.3514 28.9653 20.4187 28.4811 20.5578C28.0715 20.6735 27.6874 20.8656 27.3491 21.1238C26.8515 21.4951 26.4298 21.9585 26.1071 22.4888V20.6568H21.8301L21.8431 21.2818C21.8517 21.6985 21.8561 22.9822 21.8561 25.1328C21.8561 27.2835 21.8474 30.0895 21.8301 33.5508H26.1101V26.3558C26.0975 25.9989 26.1458 25.6425 26.2531 25.3018C26.4295 24.8671 26.7138 24.4844 27.0791 24.1898C27.4695 23.883 27.9558 23.724 28.4521 23.7408C28.7699 23.7173 29.0883 23.7761 29.3767 23.9117C29.6651 24.0473 29.9135 24.2551 30.0981 24.5148C30.4833 25.1596 30.6669 25.9049 30.6251 26.6548V33.5548H34.9051V26.1658C35.0167 24.6027 34.5322 23.0552 33.5491 21.8348Z" fill="#2943BD"/>
<path d="M17.3387 14.4509C16.6951 14.4229 16.0663 14.6496 15.5887 15.0819C15.3703 15.2848 15.1976 15.5319 15.082 15.8067C14.9665 16.0816 14.9108 16.3779 14.9187 16.6759C14.9113 16.971 14.9652 17.2645 15.0771 17.5376C15.189 17.8108 15.3564 18.0578 15.5687 18.2629C15.7975 18.4789 16.0675 18.6466 16.3624 18.7562C16.6574 18.8658 16.9714 18.915 17.2857 18.9009H17.3117C17.9607 18.9303 18.5948 18.7008 19.0747 18.2629C19.2919 18.0612 19.4631 17.815 19.5765 17.5411C19.6899 17.2673 19.7428 16.9721 19.7317 16.6759C19.736 16.3789 19.6793 16.0842 19.5651 15.81C19.4509 15.5358 19.2816 15.288 19.0677 15.0819C18.8359 14.8672 18.5636 14.7008 18.2667 14.5924C17.9698 14.4841 17.6544 14.436 17.3387 14.4509Z" fill="#2943BD"/>
</g>
<defs>
<clipPath id="clip0_6409_57658">
<rect width="19.984" height="19.099" fill="white" transform="translate(14.918 14.4507)"/>
</clipPath>
</defs>
</svg>
