<svg xmlns="http://www.w3.org/2000/svg" width="21" height="20" viewBox="0 0 21 20" fill="none">
  <g clip-path="url(#clip0_7990_4700)">
    <path d="M5.29202 6.6582H0.999023V19.5512H5.29202V6.6582Z" fill="#2943BD"/>
    <path d="M19.3821 7.83629C18.928 7.34603 18.3729 6.96009 17.7552 6.7051C17.1375 6.45011 16.4718 6.33212 15.8041 6.35929C15.3003 6.35282 14.7983 6.42021 14.3141 6.5593C13.9045 6.67501 13.5204 6.86704 13.1821 7.1253C12.6845 7.49654 12.2628 7.95994 11.9401 8.4903V6.6583H7.66309L7.67609 7.2833C7.68475 7.69997 7.68909 8.98363 7.68909 11.1343C7.68909 13.285 7.68042 16.091 7.66309 19.5523H11.9431V12.3573C11.9305 12.0004 11.9789 11.6439 12.0861 11.3033C12.2626 10.8685 12.5468 10.4858 12.9121 10.1913C13.3025 9.88443 13.7888 9.72542 14.2851 9.7423C14.6029 9.71872 14.9213 9.77757 15.2097 9.91317C15.4981 10.0488 15.7465 10.2565 15.9311 10.5163C16.3163 11.1611 16.4999 11.9064 16.4581 12.6563V19.5563H20.7381V12.1673C20.8497 10.6041 20.3652 9.0567 19.3821 7.83629Z" fill="#2943BD"/>
    <path d="M3.17171 0.451875C2.52809 0.423844 1.89934 0.650552 1.42171 1.08287C1.20328 1.28578 1.03056 1.53288 0.91504 1.80772C0.799517 2.08256 0.743839 2.37885 0.751708 2.67687C0.744277 2.97199 0.798214 3.26543 0.910103 3.53861C1.02199 3.81179 1.1894 4.05876 1.40171 4.26388C1.63055 4.47984 1.90047 4.64761 2.19543 4.75721C2.49039 4.86681 2.80436 4.91601 3.11871 4.90188H3.14471C3.7937 4.93126 4.42782 4.70179 4.90771 4.26388C5.12495 4.0622 5.29612 3.816 5.4095 3.54212C5.52289 3.26823 5.57583 2.9731 5.56471 2.67687C5.56901 2.37988 5.5123 2.08517 5.39809 1.81098C5.28387 1.5368 5.11459 1.28898 4.90071 1.08287C4.66887 0.868134 4.39656 0.701735 4.0997 0.593395C3.80284 0.485055 3.48737 0.436946 3.17171 0.451875Z" fill="#2943BD"/>
  </g>
  <defs>
    <clipPath id="clip0_7990_4700">
      <rect width="19.984" height="19.099" fill="white" transform="translate(0.751953 0.451172)"/>
    </clipPath>
  </defs>
</svg>