<svg xmlns="http://www.w3.org/2000/svg" xmlns:xlink="http://www.w3.org/1999/xlink" id="a568616d-e803-463b-a2a4-d518d42f15ef" data-name="Layer 1" viewBox="0 0 24.04 24"><defs><style>.b2710828-5821-4824-b29e-df69364ca91d{fill:#0a102c;}.ad20df55-44b6-4c9e-b4aa-24d25f96f4ba{fill:url(#a9e6b26a-24a8-430c-9364-5fc961642203);}</style><linearGradient id="a9e6b26a-24a8-430c-9364-5fc961642203" x1="21.27" y1="763.75" x2="21.27" y2="762.75" gradientTransform="matrix(24.04, 0, 0, -24, 287.73, 18591.46)" gradientUnits="userSpaceOnUse"><stop offset="0" stop-color="#50c9ff"></stop><stop offset="1" stop-color="#2942bc"></stop></linearGradient></defs><g id="acd281f2-451c-481d-a49a-a95bd8b6d621" data-name="Group 1809"><path id="a2f1d0df-926f-4c87-a83f-186a972ed5ca" data-name="Path 135" class="b2710828-5821-4824-b29e-df69364ca91d" d="M799.08,260.1a12,12,0,0,0-12,12h0a11.78,11.78,0,0,0,2.7,7.58l-2.4,2.4a1.17,1.17,0,0,0,.9,2h10.78a12,12,0,0,0,0-24Z" transform="translate(-787.05 -260.1)"></path><path id="a5c58646-fff7-468b-8fef-c2527058805c" data-name="comment" class="ad20df55-44b6-4c9e-b4aa-24d25f96f4ba" d="M799.09,260.1a12,12,0,0,0-9.29,19.6l-2.4,2.4a1.18,1.18,0,0,0,0,1.66,1.21,1.21,0,0,0,.9.34h10.8a12,12,0,0,0,0-24Zm0,21.6h-7.91l1.12-1.11a1.2,1.2,0,0,0,0-1.7,9.61,9.61,0,1,1,6.79,2.81Z" transform="translate(-787.05 -260.1)"></path></g></svg>