<svg width="25" height="24" viewBox="0 0 25 24" fill="none" xmlns="http://www.w3.org/2000/svg">
<g id="SVG">
<path id="Vector" d="M22.6411 11.816C21.9732 11.1764 21.1927 10.6657 20.3392 10.3098C19.4384 9.93693 18.4721 9.74847 17.4972 9.75563H7.8774C7.55917 9.76402 7.24274 9.70505 6.94889 9.58261C6.65503 9.46017 6.39036 9.27703 6.17223 9.04515C5.94533 8.82099 5.76655 8.5529 5.64683 8.25727C5.52711 7.96163 5.46898 7.64468 5.47598 7.3258C5.46865 7.01111 5.52672 6.69829 5.64657 6.40722C5.76642 6.11615 5.94544 5.85316 6.17223 5.63486C6.39641 5.41293 6.66277 5.23823 6.95565 5.12108C7.24854 5.00393 7.56201 4.94668 7.8774 4.95278H22.499V0.249413H7.86318C6.88724 0.229938 5.91838 0.418888 5.02126 0.803608C3.30083 1.54511 1.94283 2.93609 1.24293 4.67387C0.543034 6.41164 0.557871 8.35555 1.28413 10.0825C1.64736 10.9271 2.16274 11.6977 2.80457 12.356C3.47115 13.0247 4.26429 13.5539 5.13773 13.9125C6.01118 14.2712 6.94735 14.4521 7.89154 14.4448H17.5115C17.8356 14.4367 18.1582 14.4927 18.4606 14.6098C18.763 14.7268 19.0392 14.9026 19.2734 15.1269C19.4975 15.3472 19.6748 15.6106 19.7944 15.9012C19.9141 16.1918 19.9736 16.5036 19.9697 16.8178C19.9764 17.1409 19.9183 17.4621 19.7987 17.7623C19.6792 18.0625 19.5005 18.3357 19.2734 18.5656C19.0431 18.7953 18.7675 18.9745 18.4642 19.092C18.1608 19.2094 17.8364 19.2624 17.5115 19.2476H3.10291V23.951H17.5399C18.516 23.9727 19.4854 23.7837 20.3818 23.3968C22.1152 22.689 23.499 21.3255 24.2326 19.6029C24.7736 18.2941 24.9111 16.8536 24.6275 15.4661C24.344 14.0786 23.6522 12.8076 22.6411 11.816Z" fill="#2943BD"/>
<path id="Path 17" d="M7.86328 0.0351562H22.7549V5.1648H7.86328V0.0351562Z" fill="url(#paint0_linear_7990_4678)"/>
</g>
<defs>
<linearGradient id="paint0_linear_7990_4678" x1="7.76836" y1="4.56899" x2="22.7134" y2="5.02582" gradientUnits="userSpaceOnUse">
<stop stop-color="#0A102C" stop-opacity="0"/>
<stop offset="0.26" stop-color="#0A102C" stop-opacity="0.4"/>
<stop offset="0.92" stop-color="#0A102C"/>
</linearGradient>
</defs>
</svg>
