<svg xmlns="http://www.w3.org/2000/svg" viewBox="0 0 96 40" fill="none"><g clip-path="url(#clip0_548_93)"><path d="M83.9878 22.8795C83.0131 22.4698 82.1278 21.8693 81.3827 21.1126C80.6389 20.3571 80.0443 19.4649 79.6307 18.4838C79.2099 17.4766 78.9931 16.394 78.9931 15.3004C78.9931 14.2068 79.2099 13.1243 79.6307 12.117C80.2686 10.6332 81.3214 9.37076 82.6593 8.48538C83.9972 7.59999 85.5618 7.13034 87.1601 7.13432C88.2552 7.12555 89.3406 7.34299 90.3499 7.77335C91.3179 8.1879 92.2016 8.78068 92.956 9.52162C93.7089 10.2604 94.3114 11.1415 94.7293 12.1151C95.1501 13.1223 95.3669 14.2048 95.3669 15.2984C95.3669 16.3921 95.1501 17.4746 94.7293 18.4818C94.3133 19.4659 93.7124 20.3587 92.9599 21.1106C92.2098 21.8622 91.325 22.4619 90.3528 22.8775C88.3155 23.7289 86.0281 23.7289 83.9907 22.8775L83.9878 22.8795ZM85.2278 10.7643C84.0403 11.2549 83.0907 12.1983 82.5839 13.3912C82.3269 13.9966 82.1965 14.6493 82.201 15.3083C82.1951 16.2904 82.4805 17.2518 83.0201 18.0679C83.5597 18.8841 84.3288 19.5176 85.2278 19.8865C86.4665 20.398 87.8537 20.398 89.0924 19.8865C89.6837 19.6445 90.2218 19.2862 90.6754 18.8323C91.1291 18.3783 91.4893 17.8378 91.7354 17.242C91.9912 16.6304 92.1215 15.9725 92.1183 15.3083C92.1228 14.6493 91.9924 13.9966 91.7354 13.3912C91.2295 12.198 90.28 11.2544 89.0924 10.7643C87.8533 10.2552 86.467 10.2552 85.2278 10.7643ZM72.5395 23.4459V7.05874H75.7477V23.4459H72.5395ZM57.8463 22.8068C55.8731 21.9748 54.2974 20.3975 53.4533 18.4092C53.0325 17.4019 52.8157 16.3194 52.8157 15.2258C52.8157 14.1322 53.0325 13.0497 53.4533 12.0424C53.8702 11.0695 54.4713 10.1888 55.2227 9.44996C55.9814 8.70454 56.8717 8.11015 57.8472 7.69777C58.8513 7.27054 59.9304 7.05317 61.0196 7.05874H65.9419V0.490723H69.1859V15.2337C69.1914 16.3254 68.9739 17.4066 68.547 18.4092C68.1352 19.3896 67.5429 20.2817 66.8019 21.038C65.6476 22.1925 64.1822 22.9761 62.5896 23.2904C60.997 23.6048 59.3482 23.4359 57.8501 22.8049L57.8463 22.8068ZM59.0873 10.6907C57.8997 11.1813 56.9502 12.1247 56.4434 13.3175C56.1866 13.9224 56.0563 14.5744 56.0604 15.2327C56.0579 15.8871 56.1838 16.5355 56.4308 17.1403C56.6778 17.7451 57.0409 18.2942 57.4992 18.7557C57.9546 19.2101 58.4935 19.5699 59.0853 19.8149C59.6978 20.0702 60.3543 20.1999 61.0166 20.1967C61.6738 20.2011 62.325 20.0712 62.9315 19.8149C63.516 19.5664 64.0482 19.2068 64.4992 18.7557C64.9578 18.2943 65.3213 17.7453 65.5686 17.1405C65.816 16.5357 65.9422 15.8872 65.9399 15.2327V10.3069H61.0186C60.356 10.3037 59.6995 10.4342 59.0873 10.6907ZM38.2675 22.8068C37.2929 22.3968 36.4077 21.7964 35.6624 21.0399C34.9192 20.2843 34.3253 19.3921 33.9124 18.4112C33.4849 17.4087 33.2673 16.3275 33.2734 15.2356V7.05874H36.5185V15.2327C36.5164 15.8871 36.6426 16.5355 36.8898 17.1402C37.1369 17.745 37.5001 18.294 37.9582 18.7557C38.4092 19.2068 38.9414 19.5664 39.526 19.8149C40.1324 20.0712 40.7836 20.2011 41.4408 20.1967C42.1038 20.1999 42.7608 20.0701 43.374 19.8149C43.9656 19.5693 44.5043 19.2095 44.9602 18.7557C45.4184 18.294 45.7815 17.745 46.0287 17.1402C46.2758 16.5355 46.402 15.8871 46.4 15.2327V7.05874H49.646V15.2327C49.6518 16.3244 49.4346 17.4055 49.008 18.4082C48.5921 19.3923 47.9911 20.2851 47.2386 21.037C46.4892 21.7885 45.605 22.3882 44.6335 22.8039C42.5958 23.6555 40.308 23.6555 38.2704 22.8039L38.2675 22.8068ZM28.2813 23.4459C27.1924 23.4522 26.1135 23.2348 25.11 22.8068C24.1308 22.3942 23.2394 21.7942 22.4845 21.0399C21.7309 20.288 21.1295 19.3944 20.7141 18.4092C20.2872 17.4066 20.0697 16.3254 20.0752 15.2337V0.490723H23.3192V7.12352H29.883V10.3707H23.3192V15.2337C23.3178 15.8881 23.4444 16.5364 23.6916 17.141C23.9389 17.7457 24.302 18.2948 24.76 18.7567C25.2154 19.2111 25.7542 19.5709 26.3461 19.8159C26.9586 20.0711 27.6151 20.2009 28.2774 20.1977H29.882V23.4459H28.2813Z" fill="#E9ECF5"></path><path d="M92.5391 37.6616V28.452H93.6579V37.3985C93.6579 38.1278 93.9837 38.5008 94.6362 38.5008C94.8932 38.5018 95.1456 38.4319 95.3663 38.2986V39.293C95.0214 39.4541 94.6433 39.5288 94.2639 39.5109C94.0232 39.5319 93.781 39.4976 93.5553 39.4105C93.3296 39.3234 93.1262 39.1858 92.9603 39.008C92.7945 38.8302 92.6705 38.6167 92.5975 38.3836C92.5246 38.1504 92.5046 37.9036 92.5391 37.6616V37.6616ZM77.0004 38.8572C76.7313 38.638 76.5167 38.3581 76.3738 38.0398C76.2309 37.7216 76.1635 37.3738 76.1773 37.0245C76.1678 36.6729 76.2421 36.3242 76.394 36.0079C76.5459 35.6916 76.7709 35.4171 77.0498 35.2075C77.6907 34.7432 78.4661 34.5083 79.2536 34.54C80.2015 34.5348 81.1335 34.7866 81.9528 35.2694V34.5233C81.9528 33.2659 81.1306 32.6445 79.4863 32.6445C78.6118 32.6403 77.7568 32.906 77.0353 33.4062V32.3196C77.8488 31.8409 78.7785 31.6029 79.719 31.6325C81.7201 31.6325 83.0687 32.5954 83.0687 34.4124V37.5065C83.0687 38.0817 83.3489 38.438 83.7842 38.438C83.9344 38.4411 84.083 38.4074 84.2176 38.3399V39.2115C83.9911 39.3405 83.7322 39.3995 83.473 39.3814C83.1302 39.4091 82.7903 39.2999 82.526 39.0773C82.2616 38.8546 82.0938 38.536 82.0584 38.1897C81.6838 38.625 81.2175 38.9695 80.6937 39.1978C80.17 39.4262 79.6023 39.5325 79.0325 39.509C78.3019 39.53 77.5857 39.3003 77.0004 38.8572V38.8572ZM77.2912 36.9636C77.2912 37.9727 78.1755 38.5008 79.3408 38.5008C79.8388 38.4928 80.3292 38.3764 80.7787 38.1594C81.2282 37.9425 81.6263 37.63 81.946 37.2434V36.2019C81.2231 35.718 80.3761 35.4593 79.5095 35.4578C78.1454 35.4578 77.2942 36.0311 77.2942 36.9636H77.2912ZM60.6996 36.3884V31.8229H61.8165V36.142C61.8165 38.1151 63.0265 38.4557 63.9417 38.4557C64.4726 38.4499 64.9904 38.2879 65.4319 37.9894C65.8833 37.7142 66.2656 37.3369 66.5488 36.8871V31.8229H67.6667V39.3234H66.5488V38.17C66.1768 38.6011 65.7159 38.9442 65.1985 39.175C64.6812 39.4059 64.1201 39.5189 63.5549 39.506C61.6924 39.509 60.6996 38.3605 60.6996 36.3884ZM45.8599 38.7325V37.5811C46.7697 38.1925 47.8405 38.5121 48.9324 38.4979C50.2209 38.4979 50.9965 38.0464 50.9965 37.3023C50.9948 37.1322 50.9438 36.9664 50.8499 36.8254C50.7559 36.6844 50.6232 36.5745 50.4681 36.5091C50.2175 36.3816 49.9516 36.2876 49.677 36.2294C49.5093 36.1774 49.3387 36.1358 49.166 36.1047C48.9324 36.0438 48.7617 35.9957 48.6541 35.98C46.8692 35.5305 46.0315 34.9984 46.0315 33.7125C46.0315 32.4266 47.1339 31.6325 49.0371 31.6325C49.9919 31.585 50.94 31.8167 51.7683 32.3V33.4072C50.9593 32.9098 50.0311 32.6464 49.0846 32.6455C47.7971 32.6455 47.161 33.0803 47.161 33.7488C47.1664 33.9297 47.2235 34.105 47.3254 34.2537C47.4272 34.4023 47.5696 34.5178 47.735 34.5861C47.9832 34.6647 48.0462 34.7265 48.341 34.8041L48.6822 34.9022C48.8219 34.9484 49.3027 35.0563 49.4268 35.072C51.1487 35.4922 52.1415 36.035 52.1415 37.3239C52.1466 37.6477 52.0657 37.9669 51.9072 38.2481C51.7488 38.5294 51.5186 38.7625 51.2408 38.9229C50.5534 39.3404 49.7604 39.5451 48.9595 39.5119C47.8768 39.5307 46.8082 39.262 45.8599 38.7325V38.7325ZM23.0332 39.3686L19.5856 31.8229H20.846L23.5733 37.8628L26.288 31.8229H27.4979L24.0551 39.3686H23.0332ZM35.9513 39.3225V31.8229H37.0682V39.3234L35.9513 39.3225ZM35.9513 29.8008C35.8093 29.6501 35.7302 29.4499 35.7302 29.2417C35.7302 29.0335 35.8093 28.8333 35.9513 28.6827C36.0997 28.5333 36.3005 28.4495 36.5098 28.4495C36.719 28.4495 36.9198 28.5333 37.0682 28.6827C37.1413 28.7557 37.1994 28.8428 37.2391 28.9387C37.2787 29.0347 37.2991 29.1377 37.2991 29.2417C37.2991 29.3457 37.2787 29.4487 37.2391 29.5447C37.1994 29.6407 37.1413 29.7277 37.0682 29.8008C36.9163 29.9434 36.7169 30.0226 36.5098 30.0226C36.3026 30.0226 36.1032 29.9434 35.9513 29.8008V29.8008Z" fill="white"></path><path d="M15.3546 10.308H5.34998V7.06079H15.3546V10.308Z" fill="url(#paint0_linear_548_93)"></path><path d="M5.38675 10.3079C5.17117 10.3033 4.95693 10.3431 4.75696 10.4247C4.55699 10.5064 4.37544 10.6283 4.22331 10.783C4.06874 10.9339 3.94679 11.1156 3.86518 11.3167C3.78357 11.5178 3.74409 11.7338 3.74921 11.9511C3.74553 12.1709 3.7856 12.3891 3.86706 12.5929C3.94851 12.7966 4.06968 12.9816 4.22331 13.1369C4.37303 13.2959 4.55377 13.4217 4.75406 13.5061C4.95435 13.5906 5.16981 13.632 5.38675 13.6277H11.9515C12.6084 13.6229 13.2595 13.7532 13.8653 14.0106C14.4463 14.2571 14.9776 14.6095 15.4331 15.0501C16.1224 15.7364 16.5918 16.6168 16.7802 17.5769C16.9687 18.537 16.8675 19.5322 16.4898 20.4333C16.2407 21.0208 15.8818 21.554 15.4331 22.0039C14.9819 22.4546 14.4498 22.8138 13.8653 23.062C13.2595 23.3193 12.6084 23.4496 11.9515 23.4449H2.10488V20.1967H11.9515C12.1732 20.2041 12.3942 20.1659 12.601 20.0844C12.8078 20.003 12.9962 19.8799 13.1546 19.7226C13.3111 19.5656 13.4338 19.3776 13.5152 19.1703C13.5967 18.9631 13.635 18.741 13.6278 18.5181C13.6324 18.301 13.5928 18.0851 13.5114 17.8842C13.43 17.6832 13.3086 17.5013 13.1546 17.35C12.9962 17.1927 12.8078 17.0696 12.601 16.9882C12.3942 16.9067 12.1732 16.8685 11.9515 16.8759H5.38869C4.73161 16.8808 4.08043 16.7502 3.47483 16.4921C2.89327 16.2475 2.36585 15.8877 1.92357 15.4339C1.48375 14.9803 1.13129 14.4477 0.884236 13.8633C0.569724 13.1152 0.444479 12.2995 0.519847 11.49C0.595215 10.6805 0.868809 9.90284 1.31586 9.22741C1.76292 8.55198 2.3693 8.0001 3.08013 7.62177C3.79095 7.24343 4.58375 7.05059 5.38675 7.06068V10.3079Z" fill="#2943BD"></path></g><defs><linearGradient id="paint0_linear_548_93" x1="15.3546" y1="8.58373" x2="5.37742" y2="8.03042" gradientUnits="userSpaceOnUse"><stop stop-color="#2943BD" stop-opacity="0"></stop><stop offset="0.39" stop-color="#2943BD" stop-opacity="0.4"></stop><stop offset="1" stop-color="#2943BD"></stop></linearGradient><clipPath id="clip0_548_93"><rect width="95.8491" height="40" fill="white"></rect></clipPath></defs></svg>