<svg width="25" height="25" viewBox="0 0 25 25" fill="none" xmlns="http://www.w3.org/2000/svg">
<path d="M12.9149 6.7676C9.93369 6.7676 7.529 9.17229 7.529 12.1535C7.529 15.1348 9.93369 17.5395 12.9149 17.5395C15.8962 17.5395 18.3009 15.1348 18.3009 12.1535C18.3009 9.17229 15.8962 6.7676 12.9149 6.7676ZM12.9149 15.6551C10.9884 15.6551 9.41338 14.0848 9.41338 12.1535C9.41338 10.2223 10.9837 8.65198 12.9149 8.65198C14.8462 8.65198 16.4165 10.2223 16.4165 12.1535C16.4165 14.0848 14.8415 15.6551 12.9149 15.6551ZM19.7774 6.54729C19.7774 7.24573 19.2149 7.80354 18.5212 7.80354C17.8228 7.80354 17.2649 7.24104 17.2649 6.54729C17.2649 5.85354 17.8274 5.29104 18.5212 5.29104C19.2149 5.29104 19.7774 5.85354 19.7774 6.54729ZM23.3446 7.82229C23.2649 6.13948 22.8806 4.64885 21.6478 3.42073C20.4196 2.1926 18.929 1.80823 17.2462 1.72385C15.5118 1.62542 10.3134 1.62542 8.579 1.72385C6.90088 1.80354 5.41025 2.18791 4.17744 3.41604C2.94463 4.64417 2.56494 6.13479 2.48057 7.8176C2.38213 9.55198 2.38213 14.7504 2.48057 16.4848C2.56025 18.1676 2.94463 19.6582 4.17744 20.8864C5.41025 22.1145 6.89619 22.4989 8.579 22.5832C10.3134 22.6817 15.5118 22.6817 17.2462 22.5832C18.929 22.5035 20.4196 22.1192 21.6478 20.8864C22.8759 19.6582 23.2603 18.1676 23.3446 16.4848C23.4431 14.7504 23.4431 9.55667 23.3446 7.82229ZM21.104 18.3457C20.7384 19.2645 20.0306 19.9723 19.1071 20.3426C17.7243 20.891 14.4431 20.7645 12.9149 20.7645C11.3868 20.7645 8.10088 20.8864 6.72275 20.3426C5.804 19.977 5.09619 19.2692 4.72588 18.3457C4.17744 16.9629 4.304 13.6817 4.304 12.1535C4.304 10.6254 4.18213 7.33948 4.72588 5.96135C5.0915 5.0426 5.79932 4.33479 6.72275 3.96448C8.10557 3.41604 11.3868 3.5426 12.9149 3.5426C14.4431 3.5426 17.729 3.42073 19.1071 3.96448C20.0259 4.3301 20.7337 5.03791 21.104 5.96135C21.6524 7.34416 21.5259 10.6254 21.5259 12.1535C21.5259 13.6817 21.6524 16.9676 21.104 18.3457Z" fill="black"/>
</svg>
