<svg width="25" height="25" viewBox="0 0 25 25" fill="none" xmlns="http://www.w3.org/2000/svg">
<path d="M21.28 1.6582H3.27534C2.45034 1.6582 1.78003 2.33789 1.78003 3.17227V21.1441C1.78003 21.9785 2.45034 22.6582 3.27534 22.6582H21.28C22.105 22.6582 22.78 21.9785 22.78 21.1441V3.17227C22.78 2.33789 22.105 1.6582 21.28 1.6582ZM8.1269 19.6582H5.0144V9.63633H8.13159V19.6582H8.1269ZM6.57065 8.26758C5.57222 8.26758 4.76597 7.45664 4.76597 6.46289C4.76597 5.46914 5.57222 4.6582 6.57065 4.6582C7.5644 4.6582 8.37534 5.46914 8.37534 6.46289C8.37534 7.46133 7.56909 8.26758 6.57065 8.26758ZM19.7941 19.6582H16.6816V14.7832C16.6816 13.6207 16.6582 12.1254 15.0644 12.1254C13.4425 12.1254 13.1941 13.391 13.1941 14.6988V19.6582H10.0816V9.63633H13.0675V11.0051H13.1097C13.5269 10.2176 14.5441 9.38789 16.0582 9.38789C19.2082 9.38789 19.7941 11.4645 19.7941 14.1645V19.6582Z" fill="black"/>
</svg>
