<svg width="25" height="25" viewBox="0 0 25 25" fill="none" xmlns="http://www.w3.org/2000/svg">
<path d="M23.5723 6.66166C23.3106 5.67624 22.5395 4.90016 21.5605 4.63679C19.7859 4.1582 12.67 4.1582 12.67 4.1582C12.67 4.1582 5.55419 4.1582 3.77957 4.63679C2.80053 4.9002 2.02944 5.67624 1.76774 6.66166C1.29224 8.44779 1.29224 12.1744 1.29224 12.1744C1.29224 12.1744 1.29224 15.901 1.76774 17.6871C2.02944 18.6725 2.80053 19.4162 3.77957 19.6796C5.55419 20.1582 12.67 20.1582 12.67 20.1582C12.67 20.1582 19.7859 20.1582 21.5605 19.6796C22.5395 19.4162 23.3106 18.6725 23.5723 17.6871C24.0478 15.901 24.0478 12.1744 24.0478 12.1744C24.0478 12.1744 24.0478 8.44779 23.5723 6.66166ZM10.3427 15.5578V8.79091L16.2902 12.1745L10.3427 15.5578Z" fill="black"/>
</svg>
